<?xml version="1.0" encoding="UTF-8" standalone="no"?>
<!-- Created with Inkscape (http://www.inkscape.org/) -->

<svg
   version="1.1"
   id="svg1"
   width="476.3125"
   height="187.98532"
   viewBox="0 0 476.3125 187.98532"
   sodipodi:docname="decision-tree.pdf"
   xmlns:inkscape="http://www.inkscape.org/namespaces/inkscape"
   xmlns:sodipodi="http://sodipodi.sourceforge.net/DTD/sodipodi-0.dtd"
   xmlns="http://www.w3.org/2000/svg"
   xmlns:svg="http://www.w3.org/2000/svg">
  <defs
     id="defs1">
    <clipPath
       clipPathUnits="userSpaceOnUse"
       id="clipPath1">
      <path
         d="M 0,0 H 432 V 384 H 0 Z"
         transform="matrix(1,0,0,-1,-7.2275224e-5,384.00007)"
         id="path1" />
    </clipPath>
    <clipPath
       clipPathUnits="userSpaceOnUse"
       id="clipPath5">
      <path
         d="M 0,0 H 384 V 384 H 0 Z"
         transform="matrix(1,0,0,-1,6.4250835e-5,383.99994)"
         id="path5" />
    </clipPath>
    <clipPath
       clipPathUnits="userSpaceOnUse"
       id="clipPath40">
      <rect
         style="fill:#000000;fill-opacity:0.218182;stroke-width:0.75"
         id="rect41"
         width="393.15771"
         height="170.32269"
         x="-215.04553"
         y="-34.609779"
         ry="0"
         inkscape:export-filename="rect40.svg"
         inkscape:export-xdpi="96"
         inkscape:export-ydpi="96" />
    </clipPath>
    <clipPath
       clipPathUnits="userSpaceOnUse"
       id="clipPath41">
      <rect
         style="fill:#000000;fill-opacity:0.218182;stroke-width:0.75004"
         id="rect42"
         width="393.17853"
         height="170.33171"
         x="-274.47314"
         y="-28.139334"
         ry="0"
         inkscape:export-filename="rect40.svg"
         inkscape:export-xdpi="96"
         inkscape:export-ydpi="96"
         transform="matrix(0.9486703,-0.31626676,-0.31626676,-0.9486703,0,0)" />
    </clipPath>
    <clipPath
       clipPathUnits="userSpaceOnUse"
       id="clipPath42">
      <rect
         style="fill:#000000;fill-opacity:0.218182;stroke-width:0.75"
         id="rect43"
         width="393.15771"
         height="170.32269"
         x="-31.122522"
         y="-109.24979"
         ry="0"
         inkscape:export-filename="rect40.svg"
         inkscape:export-xdpi="96"
         inkscape:export-ydpi="96"
         transform="scale(1,-1)" />
    </clipPath>
    <clipPath
       clipPathUnits="userSpaceOnUse"
       id="clipPath43">
      <rect
         style="fill:#000000;fill-opacity:0.218182;stroke-width:0.75"
         id="rect44"
         width="393.15771"
         height="170.32269"
         x="-206.46652"
         y="-103.82078"
         ry="0"
         inkscape:export-filename="rect40.svg"
         inkscape:export-xdpi="96"
         inkscape:export-ydpi="96" />
    </clipPath>
    <clipPath
       clipPathUnits="userSpaceOnUse"
       id="clipPath44">
      <rect
         style="fill:#000000;fill-opacity:0.218182;stroke-width:0.750035"
         id="rect45"
         width="393.17606"
         height="170.33063"
         x="-274.47153"
         y="-105.31507"
         ry="0"
         inkscape:export-filename="rect40.svg"
         inkscape:export-xdpi="96"
         inkscape:export-ydpi="96"
         transform="matrix(0.9486643,0.31628476,0.31628476,-0.9486643,0,0)" />
    </clipPath>
    <clipPath
       clipPathUnits="userSpaceOnUse"
       id="clipPath45">
      <rect
         style="fill:#000000;fill-opacity:0.218182;stroke-width:0.75"
         id="rect46"
         width="393.15771"
         height="170.32269"
         x="-31.122522"
         y="-109.24979"
         ry="0"
         inkscape:export-filename="rect40.svg"
         inkscape:export-xdpi="96"
         inkscape:export-ydpi="96"
         transform="scale(1,-1)" />
    </clipPath>
    <clipPath
       clipPathUnits="userSpaceOnUse"
       id="clipPath46">
      <rect
         style="fill:#000000;fill-opacity:0.218182;stroke-width:0.75"
         id="rect47"
         width="393.15771"
         height="170.32269"
         x="-89.825523"
         y="-79.374786"
         ry="0"
         inkscape:export-filename="rect40.svg"
         inkscape:export-xdpi="96"
         inkscape:export-ydpi="96" />
    </clipPath>
    <clipPath
       clipPathUnits="userSpaceOnUse"
       id="clipPath47">
      <rect
         style="fill:#000000;fill-opacity:0.218182;stroke-width:0.75003"
         id="rect48"
         width="393.17355"
         height="170.32956"
         x="-145.44989"
         y="-71.138435"
         ry="0"
         inkscape:export-filename="rect40.svg"
         inkscape:export-xdpi="96"
         inkscape:export-ydpi="96"
         transform="matrix(0.94863829,-0.31636277,-0.31636277,-0.94863829,0,0)" />
    </clipPath>
    <clipPath
       clipPathUnits="userSpaceOnUse"
       id="clipPath48">
      <rect
         style="fill:#000000;fill-opacity:0.218182;stroke-width:0.75"
         id="rect49"
         width="393.15771"
         height="170.32269"
         x="-31.122522"
         y="-109.24979"
         ry="0"
         inkscape:export-filename="rect40.svg"
         inkscape:export-xdpi="96"
         inkscape:export-ydpi="96"
         transform="scale(1,-1)" />
    </clipPath>
    <clipPath
       clipPathUnits="userSpaceOnUse"
       id="clipPath49">
      <rect
         style="fill:#000000;fill-opacity:0.218182;stroke-width:0.75"
         id="rect50"
         width="393.15771"
         height="170.32269"
         x="-94.502525"
         y="-147.07079"
         ry="0"
         inkscape:export-filename="rect40.svg"
         inkscape:export-xdpi="96"
         inkscape:export-ydpi="96" />
    </clipPath>
    <clipPath
       clipPathUnits="userSpaceOnUse"
       id="clipPath50">
      <rect
         style="fill:#000000;fill-opacity:0.218182;stroke-width:0.750042"
         id="rect51"
         width="393.17978"
         height="170.33224"
         x="-152.26126"
         y="-149.63821"
         ry="0"
         inkscape:export-filename="rect40.svg"
         inkscape:export-xdpi="96"
         inkscape:export-ydpi="96"
         transform="matrix(0.9486733,0.31625776,0.31625776,-0.9486733,0,0)" />
    </clipPath>
    <clipPath
       clipPathUnits="userSpaceOnUse"
       id="clipPath51">
      <rect
         style="fill:#000000;fill-opacity:0.218182;stroke-width:0.75"
         id="rect52"
         width="393.15771"
         height="170.32269"
         x="-31.122522"
         y="-109.24979"
         ry="0"
         inkscape:export-filename="rect40.svg"
         inkscape:export-xdpi="96"
         inkscape:export-ydpi="96"
         transform="scale(1,-1)" />
    </clipPath>
    <clipPath
       clipPathUnits="userSpaceOnUse"
       id="clipPath52">
      <rect
         style="fill:#000000;fill-opacity:0.218182;stroke-width:0.75"
         id="rect53"
         width="393.15771"
         height="170.32269"
         x="-324.25153"
         y="-26.922783"
         ry="0"
         inkscape:export-filename="rect40.svg"
         inkscape:export-xdpi="96"
         inkscape:export-ydpi="96" />
    </clipPath>
    <clipPath
       clipPathUnits="userSpaceOnUse"
       id="clipPath53">
      <rect
         style="fill:#000000;fill-opacity:0.218182;stroke-width:0.75"
         id="rect54"
         width="393.15771"
         height="170.32269"
         x="-337.27853"
         y="-111.40878"
         ry="0"
         inkscape:export-filename="rect40.svg"
         inkscape:export-xdpi="96"
         inkscape:export-ydpi="96" />
    </clipPath>
    <clipPath
       clipPathUnits="userSpaceOnUse"
       id="clipPath54">
      <rect
         style="fill:#000000;fill-opacity:0.218182;stroke-width:0.75"
         id="rect55"
         width="393.15771"
         height="170.32269"
         x="-282.36652"
         y="-111.74078"
         ry="0"
         inkscape:export-filename="rect40.svg"
         inkscape:export-xdpi="96"
         inkscape:export-ydpi="96" />
    </clipPath>
    <clipPath
       clipPathUnits="userSpaceOnUse"
       id="clipPath55">
      <rect
         style="fill:#000000;fill-opacity:0.218182;stroke-width:0.75"
         id="rect56"
         width="393.15771"
         height="170.32269"
         x="-31.122522"
         y="-109.24979"
         ry="0"
         inkscape:export-filename="rect40.svg"
         inkscape:export-xdpi="96"
         inkscape:export-ydpi="96"
         transform="scale(1,-1)" />
    </clipPath>
    <clipPath
       clipPathUnits="userSpaceOnUse"
       id="clipPath56">
      <rect
         style="fill:#000000;fill-opacity:0.218182;stroke-width:0.75"
         id="rect57"
         width="393.15771"
         height="170.32269"
         x="-282.36652"
         y="-26.70178"
         ry="0"
         inkscape:export-filename="rect40.svg"
         inkscape:export-xdpi="96"
         inkscape:export-ydpi="96" />
    </clipPath>
    <clipPath
       clipPathUnits="userSpaceOnUse"
       id="clipPath57">
      <rect
         style="fill:#000000;fill-opacity:0.218182;stroke-width:0.75"
         id="rect58"
         width="393.15771"
         height="170.32269"
         x="-31.122522"
         y="-109.24979"
         ry="0"
         inkscape:export-filename="rect40.svg"
         inkscape:export-xdpi="96"
         inkscape:export-ydpi="96"
         transform="scale(1,-1)" />
    </clipPath>
    <clipPath
       clipPathUnits="userSpaceOnUse"
       id="clipPath58">
      <rect
         style="fill:#000000;fill-opacity:0.218182;stroke-width:0.75"
         id="rect59"
         width="393.15771"
         height="170.32269"
         x="-149.38252"
         y="-80.178787"
         ry="0"
         inkscape:export-filename="rect40.svg"
         inkscape:export-xdpi="96"
         inkscape:export-ydpi="96" />
    </clipPath>
    <clipPath
       clipPathUnits="userSpaceOnUse"
       id="clipPath59">
      <rect
         style="fill:#000000;fill-opacity:0.218182"
         id="rect60"
         width="524.21027"
         height="227.09691"
         x="160.12463"
         y="175.34563"
         ry="0"
         inkscape:export-filename="rect40.svg"
         inkscape:export-xdpi="96"
         inkscape:export-ydpi="96" />
    </clipPath>
    <clipPath
       clipPathUnits="userSpaceOnUse"
       id="clipPath60">
      <rect
         style="fill:#000000;fill-opacity:0.218182;stroke-width:0.75"
         id="rect61"
         width="393.15771"
         height="170.32269"
         x="-156.19153"
         y="-154.97978"
         ry="0"
         inkscape:export-filename="rect40.svg"
         inkscape:export-xdpi="96"
         inkscape:export-ydpi="96" />
    </clipPath>
    <clipPath
       clipPathUnits="userSpaceOnUse"
       id="clipPath61">
      <rect
         style="fill:#000000;fill-opacity:0.218182;stroke-width:0.75"
         id="rect62"
         width="393.15771"
         height="170.32269"
         x="-16.995523"
         y="-121.86979"
         ry="0"
         inkscape:export-filename="rect40.svg"
         inkscape:export-xdpi="96"
         inkscape:export-ydpi="96" />
    </clipPath>
    <clipPath
       clipPathUnits="userSpaceOnUse"
       id="clipPath62">
      <rect
         style="fill:#000000;fill-opacity:0.218182"
         id="rect63"
         width="524.21027"
         height="227.09691"
         x="160.12463"
         y="175.34563"
         ry="0"
         inkscape:export-filename="rect40.svg"
         inkscape:export-xdpi="96"
         inkscape:export-ydpi="96" />
    </clipPath>
  </defs>
  <sodipodi:namedview
     id="namedview1"
     pagecolor="#ffffff"
     bordercolor="#000000"
     borderopacity="0.25"
     inkscape:showpageshadow="2"
     inkscape:pageopacity="0.0"
     inkscape:pagecheckerboard="0"
     inkscape:deskcolor="#d1d1d1" />
  <g
     id="g1"
     inkscape:groupmode="layer"
     inkscape:label="1"
     transform="translate(-183.53516,-194.29593)">
    <g
       id="g2"
       clip-path="url(#clipPath62)">
      <path
         d="M 106.801,16.426 C 111,29.027 104.176,42.602 91.652,46.801 L 72,53.324 V 144 c 0,39.75 32.25,72 72,72 39.75,0 72,-32.25 72,-72 V 53.324 L 196.426,46.801 C 183.824,42.602 177.074,29.027 181.277,16.426 185.477,3.824 199.051,-2.926 211.652,1.277 l 19.575,6.524 C 250.801,14.324 264,32.625 264,53.324 V 144 c 0,57.898 -40.949,106.199 -95.477,117.523 C 173.25,303.449 208.801,336 252,336 c 46.426,0 84,-37.574 84,-84 V 198.977 C 314.773,189.75 300,168.602 300,144 c 0,-33.148 26.852,-60 60,-60 33.148,0 60,26.852 60,60 0,24.602 -14.773,45.75 -36,54.977 V 252 C 384,324.898 324.898,384 252,384 182.324,384 125.324,330.074 120.375,261.676 65.398,250.648 24,202.199 24,144 V 53.324 c 0,-20.625 13.199,-39 32.852,-45.523 L 76.426,1.277 c 12.601,-4.199 26.176,2.625 30.375,15.149 z M 360,168 c 8.574,0 16.496,-4.574 20.785,-12 4.285,-7.426 4.285,-16.574 0,-24 -4.289,-7.426 -12.211,-12 -20.785,-12 -8.574,0 -16.496,4.574 -20.785,12 -4.285,7.426 -4.285,16.574 0,24 4.289,7.426 12.211,12 20.785,12 z"
         style="fill:#000000;fill-opacity:1;fill-rule:nonzero;stroke:none"
         transform="matrix(0.04612,0,0,0.04612,191.65867,304.18725)"
         clip-path="url(#clipPath1)"
         id="path2" />
    </g>
    <path
       id="path3"
       d="M 3.4803359,-3.8663047 2.2029922,-4.1709922 c -0.6210938,-0.1523437 -1.0078125,-0.6914062 -1.0078125,-1.265625 0,-0.703125 0.5390625,-1.3007812 1.3125,-1.3007812 1.6640625,0 1.8867187,1.6289062 1.9453125,2.0742187 0.011719,0.058594 0.011719,0.1171875 0.1171875,0.1171875 0.1289062,0 0.1289062,-0.046875 0.1289062,-0.234375 v -2.0039062 c 0,-0.1640625 0,-0.234375 -0.1054687,-0.234375 -0.070312,0 -0.082031,0.011719 -0.1523438,0.1289062 l -0.3515625,0.5625 c -0.2929687,-0.28125 -0.703125,-0.6914062 -1.59375,-0.6914062 -1.1015625,0 -1.93359371,0.8789062 -1.93359371,1.9335937 0,0.8203125 0.52734371,1.546875 1.30078121,1.8164063 0.1054688,0.046875 0.6210938,0.1640625 1.3125,0.328125 0.2695313,0.070312 0.5742188,0.140625 0.84375,0.515625 0.2109375,0.2578125 0.3164063,0.5859375 0.3164063,0.9140625 0,0.70312496 -0.5039063,1.41796871 -1.3359375,1.41796871 -0.2929688,0 -1.0429688,-0.046875 -1.5703125,-0.5390625 C 0.84361719,-1.1592734 0.82017969,-1.8038047 0.80846094,-2.1553672 c -0.0117188,-0.1054687 -0.09375,-0.1054687 -0.1171875,-0.1054687 -0.12890625,0 -0.12890625,0.070312 -0.12890625,0.2460937 v 1.99218751 c 0,0.17578125 0,0.24609375 0.10546875,0.24609375 0.0703125,0 0.0820313,-0.0234375 0.15234375,-0.12890625 0,-0.01171875 0.0234375,-0.046875 0.35156251,-0.57421875 0.3164062,0.33984375 0.9492187,0.703125 1.8398437,0.703125 1.1601563,0 1.9570313,-0.984375 1.9570313,-2.07421876 0,-0.9960937 -0.65625,-1.8164062 -1.4882813,-2.015625 z m 3.2138672,1.6992188 c 0,-1.6289063 0.8203125,-2.0507813 1.3476563,-2.0507813 0.09375,0 0.7148437,0.011719 1.0664062,0.375 -0.4101562,0.023437 -0.46875,0.328125 -0.46875,0.4570313 0,0.2578125 0.1875,0.4570312 0.4570313,0.4570312 0.2578125,0 0.4570312,-0.1640625 0.4570312,-0.46875 0,-0.6796875 -0.75,-1.0664062 -1.5234375,-1.0664062 -1.2421875,0 -2.15625,1.078125 -2.15625,2.3085937 0,1.27734376 0.984375,2.26171876 2.1445313,2.26171876 1.3359375,0 1.6523437,-1.19531246 1.6523437,-1.28906246 0,-0.1054688 -0.1054687,-0.1054688 -0.1289062,-0.1054688 -0.09375,0 -0.1171875,0.046875 -0.1289063,0.1054688 -0.2929687,0.92578121 -0.9375,1.04296871 -1.3125,1.04296871 -0.5273437,0 -1.40625,-0.421875 -1.40625,-2.02734371 z m 4.9335939,-1.1367188 v -1.1015625 l -1.382813,0.1171875 v 0.3046875 c 0.691407,0 0.773438,0.070312 0.773438,0.5625 v 2.66015626 c 0,0.45703125 -0.105469,0.45703125 -0.773438,0.45703125 V 8.828125e-4 C 10.631703,-0.01083594 11.100453,-0.03427344 11.381703,-0.03427344 c 0.398438,0 0.867188,0 1.265625,0.0351562525 V -0.30380469 h -0.210937 c -0.738282,0 -0.761719,-0.1171875 -0.761719,-0.46875 V -2.3077109 c 0,-0.984375 0.421875,-1.875 1.183594,-1.875 0.05859,0 0.08203,0 0.105468,0.011719 -0.03516,0.011719 -0.234375,0.1289063 -0.234375,0.3867188 0,0.28125 0.210938,0.4335937 0.433594,0.4335937 0.175781,0 0.421875,-0.1289062 0.421875,-0.4453125 0,-0.3164062 -0.304687,-0.609375 -0.726562,-0.609375 -0.738282,0 -1.089844,0.6679688 -1.230469,1.1015622 z m 3.351562,0.796875 c 0.05859,-1.4882812 0.902344,-1.734375 1.242188,-1.734375 1.019531,0 1.125,1.3476563 1.125,1.734375 z m -0.01172,0.2109375 h 2.789062 c 0.210938,0 0.246094,0 0.246094,-0.2109375 0,-0.984375 -0.539063,-1.9570312 -1.78125,-1.9570312 -1.160156,0 -2.074219,1.03125 -2.074219,2.2734375 0,1.33593746 1.042969,2.29687496 2.191406,2.29687496 1.21875,0 1.664063,-1.1015625 1.664063,-1.28906246 0,-0.1054688 -0.08203,-0.1171875 -0.128906,-0.1171875 -0.09375,0 -0.117188,0.058594 -0.128907,0.140625 -0.351562,1.01953121 -1.253906,1.01953121 -1.347656,1.01953121 -0.503906,0 -0.902344,-0.29296875 -1.125,-0.66796875 C 14.967641,-1.2881797 14.967641,-1.9444297 14.967641,-2.2959922 Z m 4.438476,-0.2109375 c 0.05859,-1.4882812 0.902344,-1.734375 1.242188,-1.734375 1.019531,0 1.125,1.3476563 1.125,1.734375 z m -0.01172,0.2109375 h 2.789063 c 0.210937,0 0.246094,0 0.246094,-0.2109375 0,-0.984375 -0.539063,-1.9570312 -1.78125,-1.9570312 -1.160157,0 -2.074219,1.03125 -2.074219,2.2734375 0,1.33593746 1.042969,2.29687496 2.191406,2.29687496 1.21875,0 1.664063,-1.1015625 1.664063,-1.28906246 0,-0.1054688 -0.08203,-0.1171875 -0.128907,-0.1171875 -0.09375,0 -0.117187,0.058594 -0.128906,0.140625 -0.351562,1.01953121 -1.253906,1.01953121 -1.347656,1.01953121 -0.503906,0 -0.902344,-0.29296875 -1.125,-0.66796875 C 19.394398,-1.2881797 19.394398,-1.9444297 19.394398,-2.2959922 Z m 4.426758,-1.125 v 2.66015626 c 0,0.45703125 -0.117187,0.45703125 -0.785156,0.45703125 V 8.828125e-4 C 23.387563,-0.01083594 23.891469,-0.03427344 24.161,-0.03427344 c 0.257813,0 0.785156,0.0234375 1.113281,0.0351562525 V -0.30380469 c -0.65625,0 -0.773437,0 -0.773437,-0.45703125 V -2.5889609 c 0,-1.03125 0.714844,-1.59375 1.347656,-1.59375 0.621094,0 0.738281,0.5390625 0.738281,1.1015625 v 2.32031246 c 0,0.45703125 -0.117187,0.45703125 -0.773437,0.45703125 V 8.828125e-4 c 0.339844,-0.0117187525 0.855469,-0.0351562525 1.125,-0.0351562525 0.257812,0 0.773437,0.0234375 1.113281,0.0351562525 V -0.30380469 c -0.515625,0 -0.773437,0 -0.785156,-0.3046875 V -2.5069297 c 0,-0.8554687 0,-1.171875 -0.304688,-1.5234375 -0.140625,-0.1757812 -0.46875,-0.375 -1.042968,-0.375 -0.726563,0 -1.195313,0.4335938 -1.476563,1.0546875 V -4.4053672 L 23.036,-4.2881797 v 0.3046875 c 0.703125,0 0.785156,0.070312 0.785156,0.5625 z m 0,0"
       style="fill:#000000;fill-opacity:1;fill-rule:nonzero;stroke:none"
       aria-label="Screen"
       transform="matrix(1.3333333,0,0,1.3333333,182.78533,337.83867)"
       clip-path="url(#clipPath61)" />
    <path
       id="path4"
       d="m 4.5812109,-3.1882188 c 0,-0.796875 -0.046875,-1.59375 -0.3984375,-2.3320312 -0.4570312,-0.9609375 -1.2773437,-1.1132813 -1.6875,-1.1132813 -0.5976562,0 -1.3359375,0.2578125 -1.73437496,1.1835938 -0.328125,0.6914062 -0.375,1.4648437 -0.375,2.2617187 0,0.75 0.046875,1.640625 0.4453125,2.4023438 0.43359376,0.80859375 1.16015626,1.0078125 1.65234376,1.0078125 0.5390625,0 1.2890625,-0.2109375 1.734375,-1.16015625 C 4.5343359,-1.629625 4.5812109,-2.4030625 4.5812109,-3.1882188 Z M 2.4835547,-7.1875e-4 c -0.3867188,0 -0.984375,-0.24609375 -1.1601563,-1.20703125 -0.1054687,-0.5976563 -0.1054687,-1.5117188 -0.1054687,-2.0976563 0,-0.6445312 0,-1.3007812 0.082031,-1.8398437 0.1875,-1.1835938 0.9257813,-1.265625 1.1835938,-1.265625 0.328125,0 0.984375,0.1757812 1.171875,1.1601562 0.09375,0.5625 0.09375,1.3125 0.09375,1.9453125 0,0.75 0,1.4179688 -0.1054688,2.0625 C 3.491367,-0.30540625 2.928867,-7.1875e-4 2.4835547,-7.1875e-4 Z m 0,0"
       style="fill:#000000;fill-opacity:1;fill-rule:nonzero;stroke:none"
       aria-label="0"
       transform="matrix(1.3333333,0,0,1.3333333,368.38,381.98533)"
       clip-path="url(#clipPath60)" />
    <g
       id="g6"
       clip-path="url(#clipPath59)">
      <path
         d="M 0,48 C 0,34.727 10.727,24 24,24 h 120 c 13.273,0 24,10.727 24,24 0,13.273 -10.727,24 -24,24 v 228 c 0,33.148 -26.852,60 -60,60 -33.148,0 -60,-26.852 -60,-60 V 72 C 10.727,72 0,61.273 0,48 Z M 102,72 H 66 v 120 h 36 z M 216,48 c 0,-13.273 10.727,-24 24,-24 h 120 c 13.273,0 24,10.727 24,24 0,13.273 -10.727,24 -24,24 v 228 c 0,33.148 -26.852,60 -60,60 -33.148,0 -60,-26.852 -60,-60 V 72 C 226.727,72 216,61.273 216,48 Z m 102,24 h -36 v 120 h 36 z"
         style="fill:#000000;fill-opacity:1;fill-rule:nonzero;stroke:none"
         transform="matrix(0.05188,0,0,0.05188,361.73733,246.38875)"
         clip-path="url(#clipPath5)"
         id="path6" />
    </g>
    <path
       id="path7"
       d="M 6.6323984,-6.7387813 H 0.55036719 l -0.1875,2.2382813 h 0.24609375 c 0.140625,-1.6054688 0.29296875,-1.9335938 1.79296876,-1.9335938 0.1757812,0 0.4335937,0 0.5390625,0.023437 0.2109375,0.035156 0.2109375,0.140625 0.2109375,0.375 v 5.25000005 c 0,0.33984375 0,0.48046875 -1.0546875,0.48046875 H 1.6988047 V -5e-4 c 0.4101562,-0.03515625 1.4296875,-0.03515625 1.8867187,-0.03515625 0.4570313,0 1.4882813,0 1.8984375,0.03515625 V -0.3051875 H 5.0855234 c -1.0546875,0 -1.0546875,-0.140625 -1.0546875,-0.48046875 V -6.0356563 c 0,-0.1992187 0,-0.3398437 0.1875,-0.375 0.1054688,-0.023437 0.375,-0.023437 0.5625,-0.023437 1.5,0 1.6523438,0.328125 1.7929688,1.9335938 h 0.2460937 z m 0.8496094,4.2304688 c 0.058594,-1.4882813 0.9023438,-1.734375 1.2421875,-1.734375 1.0195313,0 1.125,1.3476562 1.125,1.734375 z m -0.011719,0.2109375 h 2.7890632 c 0.210937,0 0.246093,0 0.246093,-0.2109375 0,-0.984375 -0.5390625,-1.9570313 -1.78125,-1.9570313 -1.1601562,0 -2.0742187,1.03125 -2.0742187,2.2734375 0,1.33593755 1.0429687,2.29687505 2.1914062,2.29687505 1.2187505,0 1.6640625,-1.1015625 1.6640625,-1.28906255 0,-0.1054687 -0.08203,-0.1171875 -0.128906,-0.1171875 -0.09375,0 -0.117187,0.058594 -0.128906,0.140625 -0.351563,1.0195313 -1.2539067,1.0195313 -1.3476567,1.0195313 -0.5039063,0 -0.9023438,-0.29296875 -1.125,-0.66796875 C 7.4702891,-1.2895625 7.4702891,-1.9458125 7.4702888,-2.297375 Z m 5.3994142,0.3632812 c 0.222656,0.035156 1.03125,0.1992188 1.03125,0.9140625 0,0.51562505 -0.351562,0.91406255 -1.125,0.91406255 -0.832031,0 -1.195312,-0.57421875 -1.382812,-1.41796875 -0.03516,-0.1289063 -0.03516,-0.1757813 -0.140625,-0.1757813 -0.128907,0 -0.128907,0.070312 -0.128907,0.2578125 v 1.31250005 c 0,0.1640625 0,0.234375 0.105469,0.234375 0.05859,0 0.07031,0 0.257813,-0.19921875 0.01172,-0.01171875 0.01172,-0.03515625 0.199218,-0.22265625 0.433594,0.421875 0.878907,0.421875 1.089844,0.421875 1.148438,0 1.605469,-0.66796875 1.605469,-1.38281255 0,-0.5273437 -0.292969,-0.8203125 -0.421875,-0.9492187 -0.328125,-0.3164063 -0.714844,-0.3984375 -1.136719,-0.46875 -0.550781,-0.1171875 -1.21875,-0.2460938 -1.21875,-0.8203125 0,-0.3515625 0.257813,-0.7617188 1.113281,-0.7617188 1.101563,0 1.148438,0.9023438 1.171875,1.2070313 0,0.09375 0.09375,0.09375 0.117188,0.09375 0.128906,0 0.128906,-0.046875 0.128906,-0.2460938 V -4.21925 c 0,-0.1757813 0,-0.2460938 -0.117187,-0.2460938 -0.04687,0 -0.07031,0 -0.199219,0.1171875 -0.02344,0.046875 -0.128906,0.1289063 -0.164063,0.1640625 -0.375,-0.28125 -0.785156,-0.28125 -0.9375,-0.28125 -1.21875,0 -1.59375,0.6679688 -1.59375,1.2304688 0,0.3398437 0.164063,0.6210937 0.433594,0.84375 0.316406,0.2578125 0.597656,0.3164062 1.3125,0.4570312 z m 3.577149,-2.0507812 h 1.429687 v -0.3046875 h -1.429687 v -1.8398438 h -0.246094 c -0.01172,0.8203125 -0.316406,1.8867188 -1.289063,1.921875 v 0.2226563 h 0.84375 v 2.7539062 c 0,1.21875005 0.925782,1.33593755 1.289063,1.33593755 0.703125,0 0.984375,-0.703125 0.984375,-1.33593755 v -0.5742187 h -0.246094 v 0.5507812 c 0,0.7382813 -0.304687,1.1132813 -0.667969,1.1132813 -0.667968,0 -0.667968,-0.9023438 -0.667968,-1.078125 z m 0,0"
       style="fill:#000000;fill-opacity:1;fill-rule:nonzero;stroke:none"
       aria-label="Test"
       transform="matrix(1.3333333,0,0,1.3333333,359.30133,282.25067)"
       clip-path="url(#clipPath58)" />
    <path
       id="path8"
       d="m 264.91866,85.04042 c 0,5.41101 -4.38637,9.79738 -9.79738,9.79738 -5.41101,0 -9.79737,-4.38637 -9.79737,-9.79738 0,-5.41101 4.38636,-9.79736 9.79737,-9.79736 5.41101,0 9.79738,4.38635 9.79738,9.79736 z"
       style="fill:none;stroke:#000000;stroke-width:0.3985;stroke-linecap:butt;stroke-linejoin:miter;stroke-miterlimit:10;stroke-dasharray:none;stroke-opacity:1"
       transform="matrix(1.3333333,0,0,-1.3333333,201.62133,321.012)"
       clip-path="url(#clipPath57)" />
    <path
       id="path9"
       d="m 4.0780859,-2.2959609 h 2.7773438 c 0.140625,0 0.328125,0 0.328125,-0.1992188 0,-0.1992187 -0.1875,-0.1992187 -0.328125,-0.1992187 H 4.0780859 v -2.7890625 c 0,-0.1289063 0,-0.328125 -0.1992187,-0.328125 -0.1992188,0 -0.1992188,0.1992187 -0.1992188,0.328125 v 2.7890625 H 0.89058594 c -0.140625,0 -0.328125,0 -0.328125,0.1992187 0,0.1992188 0.1875,0.1992188 0.328125,0.1992188 H 3.6796484 v 2.80078121 c 0,0.12890625 0,0.328125 0.1992188,0.328125 0.1992187,0 0.1992187,-0.19921875 0.1992187,-0.328125 z m 0,0"
       style="fill:#000000;fill-opacity:1;fill-rule:nonzero;stroke:none"
       aria-label="+"
       transform="matrix(1.3333333,0,0,1.3333333,536.61333,210.948)"
       clip-path="url(#clipPath56)" />
    <path
       id="path10"
       d="m 264.91866,0 c 0,5.411 -4.38637,9.79736 -9.79738,9.79736 -5.41101,0 -9.79737,-4.38636 -9.79737,-9.79736 0,-5.411 4.38636,-9.79736 9.79737,-9.79736 5.41101,0 9.79738,4.38636 9.79738,9.79736 z"
       style="fill:none;stroke:#000000;stroke-width:0.3985;stroke-linecap:butt;stroke-linejoin:miter;stroke-miterlimit:10;stroke-dasharray:none;stroke-opacity:1"
       transform="matrix(1.3333333,0,0,-1.3333333,201.62133,321.012)"
       clip-path="url(#clipPath55)" />
    <path
       id="path11"
       d="m 6.5624609,-2.2978516 c 0.1757813,0 0.3515625,0 0.3515625,-0.1992187 0,-0.1992188 -0.1757812,-0.1992188 -0.3515625,-0.1992188 h -5.390625 c -0.1640625,0 -0.33984371,0 -0.33984371,0.1992188 0,0.1992187 0.17578121,0.1992187 0.33984371,0.1992187 z m 0,0"
       style="fill:#000000;fill-opacity:1;fill-rule:nonzero;stroke:none"
       aria-label="−"
       transform="matrix(1.3333333,0,0,1.3333333,536.61333,324.33333)"
       clip-path="url(#clipPath54)" />
    <g
       id="g11"
       aria-label="−c&#10;test"
       transform="matrix(1.3333333,0,0,1.3333333,609.82933,323.89067)"
       clip-path="url(#clipPath53)">
      <path
         id="path12"
         d="m 6.5615938,-2.2969063 c 0.1757812,0 0.3515625,0 0.3515625,-0.1992187 0,-0.1992188 -0.1757813,-0.1992188 -0.3515625,-0.1992188 h -5.390625 c -0.1640625,0 -0.3398438,0 -0.3398438,0.1992188 0,0.1992187 0.1757813,0.1992187 0.3398438,0.1992187 z m 0,0"
         style="fill:#000000;fill-opacity:1;fill-rule:nonzero;stroke:none" />
      <path
         id="path13"
         d="m 11.697336,-3.7851875 c -0.164063,0 -0.304688,0 -0.445313,0.140625 -0.152343,0.1523437 -0.175781,0.3164062 -0.175781,0.3867187 0,0.234375 0.175781,0.3515625 0.363281,0.3515625 0.292969,0 0.5625,-0.2460937 0.5625,-0.6445312 0,-0.4804688 -0.46875,-0.8554688 -1.171875,-0.8554688 -1.3476558,0 -2.6718746,1.4296875 -2.6718746,2.8359375 0,0.89062505 0.5742188,1.6757813 1.6171875,1.6757813 1.4179691,0 2.2617191,-1.0546875 2.2617191,-1.171875 0,-0.058594 -0.07031,-0.1289063 -0.128907,-0.1289063 -0.04687,0 -0.07031,0.023437 -0.128906,0.09375 C 10.994211,-0.1055 9.9043672,-0.1055 9.7871797,-0.1055 c -0.6210938,0 -0.890625,-0.4921875 -0.890625,-1.0898438 0,-0.4101562 0.1992187,-1.3710937 0.5390625,-1.9921875 0.3046875,-0.5625 0.8554688,-0.9960937 1.4062498,-0.9960937 0.328125,0 0.714844,0.1289062 0.855469,0.3984375 z m 0,0"
         style="fill:#000000;fill-opacity:1;fill-rule:nonzero;stroke:none" />
      <path
         id="path14"
         d="m 13.466867,-1.2597969 h 1.078125 v -0.2460937 h -1.078125 v -1.2890625 h -0.246094 c 0,0.6328125 -0.292968,1.3242187 -0.960937,1.3359375 v 0.1992187 h 0.65625 v 1.88671877 c 0,0.77343753 0.585937,0.93750003 0.972656,0.93750003 0.46875,0 0.785156,-0.3984375 0.785156,-0.94921878 V 0.22848437 h -0.234375 v 0.375 c 0,0.48046873 -0.222656,0.73828123 -0.492187,0.73828123 -0.480469,0 -0.480469,-0.58593748 -0.480469,-0.71484373 z m 4.775391,1.16015627 c 0.140625,0 0.1875,0 0.1875,-0.15234375 0,-0.609375 -0.339844,-1.35937502 -1.371094,-1.35937502 -0.914062,0 -1.617187,0.72656252 -1.617187,1.58203127 0,0.87890625 0.773437,1.59375003 1.699218,1.59375003 0.949219,0 1.289063,-0.75000003 1.289063,-0.90234378 0,-0.0351563 -0.01172,-0.10546875 -0.117188,-0.10546875 -0.08203,0 -0.105468,0.046875 -0.117187,0.1171875 -0.222656,0.56250003 -0.75,0.66796873 -0.996094,0.66796873 -0.328125,0 -0.644531,-0.1523437 -0.855469,-0.41015623 -0.257812,-0.328125 -0.269531,-0.75 -0.269531,-1.03125 z m -2.15625,-0.17578125 c 0.07031,-0.98437502 0.703125,-1.14843752 0.972656,-1.14843752 0.855469,0 0.878906,0.97265627 0.890625,1.14843752 z m 5.276367,-1.16015622 c 0,-0.1171875 0,-0.1757813 -0.105469,-0.1757813 -0.03516,0 -0.04687,0 -0.140625,0.082031 -0.01172,0 -0.08203,0.070312 -0.117187,0.1054687 -0.210938,-0.1523437 -0.480469,-0.1875 -0.738281,-0.1875 -0.996094,0 -1.230469,0.515625 -1.230469,0.86718752 0,0.22265625 0.09375,0.41015625 0.257812,0.5390625 0.269532,0.234375 0.539063,0.28125 0.960938,0.3515625 0.351562,0.0703125 0.914062,0.1640625 0.914062,0.6328125 0,0.26953128 -0.1875,0.58593748 -0.855468,0.58593748 -0.667969,0 -0.914063,-0.43359373 -1.03125,-0.91406248 -0.02344,-0.0820313 -0.03516,-0.1171875 -0.128907,-0.1171875 -0.117187,0 -0.117187,0.046875 -0.117187,0.1875 V 1.3769219 c 0,0.1289062 0,0.1875 0.09375,0.1875 0.05859,0 0.199219,-0.1523438 0.339844,-0.3046875 0.304687,0.2929687 0.679687,0.3046875 0.84375,0.3046875 0.914062,0 1.242187,-0.4921875 1.242187,-0.98437503 0,-0.26953125 -0.117187,-0.46875 -0.292969,-0.64453125 -0.269531,-0.24609375 -0.585937,-0.29296875 -0.832031,-0.33984375 -0.5625,-0.09375 -1.007812,-0.17578125 -1.007812,-0.55078125 0,-0.22265622 0.1875,-0.49218752 0.84375,-0.49218752 0.808593,0 0.84375,0.56250002 0.855468,0.76171877 0.01172,0.0820313 0.09375,0.0820313 0.117188,0.0820313 0.128906,0 0.128906,-0.046875 0.128906,-0.1875 z m 1.916016,0.1757812 h 1.078125 v -0.2460937 h -1.078125 v -1.2890625 h -0.246094 c 0,0.6328125 -0.292969,1.3242187 -0.960938,1.3359375 v 0.1992187 h 0.65625 v 1.88671877 c 0,0.77343753 0.585938,0.93750003 0.972657,0.93750003 0.46875,0 0.785156,-0.3984375 0.785156,-0.94921878 V 0.22848437 h -0.234375 v 0.375 c 0,0.48046873 -0.222656,0.73828123 -0.492188,0.73828123 -0.480468,0 -0.480468,-0.58593748 -0.480468,-0.71484373 z m 0,0"
         style="fill:#000000;fill-opacity:1;fill-rule:nonzero;stroke:none" />
    </g>
    <g
       id="g14"
       aria-label="b&#10;treat&#10;−c&#10;test"
       transform="matrix(1.3333333,0,0,1.3333333,592.46,211.24267)"
       clip-path="url(#clipPath52)">
      <path
         id="path15"
         d="m 2.3796094,-6.8089531 c 0,0 0,-0.1054688 -0.1289063,-0.1054688 -0.2226562,0 -0.9492187,0.082031 -1.21875,0.1054688 -0.0703125,0 -0.18749997,0.011719 -0.18749997,0.1992187 0,0.1171875 0.09375,0.1171875 0.24609377,0.1171875 0.46875,0 0.4921875,0.070312 0.4921875,0.1640625 0,0.070312 -0.082031,0.4101563 -0.140625,0.6210938 l -0.80859377,3.2460937 c -0.12890625,0.5039063 -0.1640625,0.65625 -0.1640625,1.0078125 0,0.94921877 0.52734375,1.55859377 1.26562497,1.55859377 1.171875,0 2.4023438,-1.47656247 2.4023438,-2.91796877 0,-0.9023437 -0.5273438,-1.59375 -1.3242188,-1.59375 -0.4570312,0 -0.8671875,0.2929688 -1.171875,0.5976563 z m -0.9375,3.7734375 c 0.058594,-0.2226563 0.058594,-0.2460938 0.1523437,-0.3515625 0.4921875,-0.6445313 0.9375,-0.796875 1.1953125,-0.796875 0.3632813,0 0.6328125,0.2929687 0.6328125,0.9375 0,0.5859375 -0.328125,1.734375 -0.515625,2.109375 -0.328125,0.66796872 -0.7851562,1.03124997 -1.171875,1.03124997 -0.3398437,0 -0.6679687,-0.26953125 -0.6679687,-1.00781247 0,-0.1875 0,-0.3867188 0.1640625,-1.0078125 z m 0,0"
         style="fill:#000000;fill-opacity:1;fill-rule:nonzero;stroke:none" />
      <path
         id="path16"
         d="m 5.6813672,-1.260125 h 1.078125 V -1.5062188 H 5.6813672 V -2.7952813 H 5.4352734 c 0,0.6328125 -0.2929687,1.3242188 -0.9609375,1.3359375 v 0.1992188 h 0.65625 v 1.88671875 c 0,0.77343745 0.5859375,0.93749995 0.9726563,0.93749995 0.46875,0 0.7851562,-0.3984375 0.7851562,-0.9492187 V 0.22815625 h -0.234375 v 0.375 c 0,0.48046875 -0.2226562,0.73828125 -0.4921875,0.73828125 -0.4804687,0 -0.4804687,-0.5859375 -0.4804687,-0.71484375 z m 3.0908203,1.16015625 c 0,-0.5859375 0.28125,-1.28906255 0.9375,-1.28906255 -0.058594,0.046875 -0.1171875,0.140625 -0.1171875,0.2578125 0,0.2226563 0.1757813,0.3164063 0.3164063,0.3164063 0.1640627,0 0.3164067,-0.10546875 0.3164067,-0.3164063 0,-0.2460937 -0.222657,-0.4453125 -0.5507817,-0.4453125 -0.3515625,0 -0.7265625,0.2109375 -0.9375,0.7382813 h -0.011719 v -0.7382813 l -0.9960937,0.070312 v 0.2578125 c 0.46875,0 0.5273437,0.046875 0.5273437,0.3867188 V 0.943 c 0,0.3046875 -0.070312,0.3046875 -0.5273437,0.3046875 v 0.2460937 c 0.035156,0 0.515625,-0.023437 0.796875,-0.023437 0.3046875,0 0.609375,0.011719 0.9023437,0.023437 V 1.2476875 h -0.140625 c -0.515625,0 -0.515625,-0.082031 -0.515625,-0.31640625 z m 4.7988285,0 c 0.140625,0 0.1875,0 0.1875,-0.15234375 0,-0.609375 -0.339844,-1.359375 -1.371094,-1.359375 -0.914063,0 -1.617188,0.7265625 -1.617188,1.58203125 0,0.87890625 0.773438,1.59374995 1.699219,1.59374995 0.949219,0 1.289063,-0.74999995 1.289063,-0.9023437 0,-0.0351563 -0.01172,-0.10546875 -0.117188,-0.10546875 -0.08203,0 -0.105469,0.046875 -0.117187,0.1171875 -0.222657,0.56249995 -0.75,0.66796875 -0.996094,0.66796875 -0.328125,0 -0.644531,-0.1523438 -0.855469,-0.41015625 -0.257812,-0.328125 -0.269531,-0.75 -0.269531,-1.03125 z M 11.414766,-0.27575 c 0.07031,-0.984375 0.703125,-1.1484375 0.972656,-1.1484375 0.855469,0 0.878906,0.97265625 0.890625,1.1484375 z m 5.733398,-0.09375 c 0,-0.375 0,-0.6445313 -0.316406,-0.9023438 -0.28125,-0.234375 -0.621094,-0.3398437 -1.03125,-0.3398437 -0.667969,0 -1.125,0.2460937 -1.125,0.66796875 0,0.22265625 0.152344,0.33984375 0.328125,0.33984375 0.1875,0 0.328125,-0.12890625 0.328125,-0.31640625 0,-0.12890625 -0.05859,-0.26953125 -0.246094,-0.32812505 0.257813,-0.1757812 0.65625,-0.1757812 0.703125,-0.1757812 0.386719,0 0.808594,0.2578125 0.808594,0.84375 v 0.22265625 c -0.375,0.0117188 -0.84375,0.0351563 -1.347656,0.22265625 -0.632813,0.22265625 -0.820313,0.609375 -0.820313,0.92578125 0,0.59765625 0.726563,0.77343745 1.21875,0.77343745 0.550781,0 0.878906,-0.3164062 1.03125,-0.58593745 0.02344,0.28124995 0.210938,0.55078125 0.539063,0.55078125 0.01172,0 0.691406,0 0.691406,-0.66796875 v -0.375 h -0.246094 v 0.375 c 0,0.0703125 0,0.39843745 -0.257812,0.39843745 -0.257813,0 -0.257813,-0.32812495 -0.257813,-0.4101562 z m -0.550781,0.87890625 c 0,0.66796875 -0.585938,0.85546875 -0.890625,0.85546875 -0.363281,0 -0.691406,-0.234375 -0.691406,-0.57421875 0,-0.38671875 0.328125,-0.92578125 1.582031,-0.97265625 z M 19.421602,-1.260125 h 1.078125 v -0.2460938 h -1.078125 v -1.2890625 h -0.246094 c 0,0.6328125 -0.292969,1.3242188 -0.960938,1.3359375 v 0.1992188 h 0.65625 v 1.88671875 c 0,0.77343745 0.585938,0.93749995 0.972657,0.93749995 0.46875,0 0.785156,-0.3984375 0.785156,-0.9492187 V 0.22815625 h -0.234375 v 0.375 c 0,0.48046875 -0.222656,0.73828125 -0.492188,0.73828125 -0.480468,0 -0.480468,-0.5859375 -0.480468,-0.71484375 z m 0,0"
         style="fill:#000000;fill-opacity:1;fill-rule:nonzero;stroke:none" />
      <path
         id="path17"
         d="m 30.40207,-2.2972344 c 0.175782,0 0.351563,0 0.351563,-0.1992187 0,-0.1992188 -0.175781,-0.1992188 -0.351563,-0.1992188 h -5.390625 c -0.164062,0 -0.339843,0 -0.339843,0.1992188 0,0.1992187 0.175781,0.1992187 0.339843,0.1992187 z m 0,0"
         style="fill:#000000;fill-opacity:1;fill-rule:nonzero;stroke:none" />
      <path
         id="path18"
         d="m 37.752656,-3.7855156 c -0.164062,0 -0.304687,0 -0.445312,0.140625 -0.152344,0.1523437 -0.175781,0.3164062 -0.175781,0.3867187 0,0.234375 0.175781,0.3515625 0.363281,0.3515625 0.292969,0 0.5625,-0.2460937 0.5625,-0.6445312 0,-0.4804688 -0.46875,-0.8554688 -1.171875,-0.8554688 -1.347656,0 -2.671875,1.4296875 -2.671875,2.8359375 0,0.89062502 0.574219,1.67578127 1.617187,1.67578127 1.417969,0 2.261719,-1.0546875 2.261719,-1.17187497 0,-0.058594 -0.07031,-0.1289063 -0.128906,-0.1289063 -0.04687,0 -0.07031,0.023437 -0.128906,0.09375 -0.785157,0.99609377 -1.875,0.99609377 -1.992188,0.99609377 -0.621094,0 -0.890625,-0.4921875 -0.890625,-1.08984377 0,-0.4101562 0.199219,-1.3710937 0.539063,-1.9921875 0.304687,-0.5625 0.855468,-0.9960937 1.40625,-0.9960937 0.328125,0 0.714843,0.1289062 0.855468,0.3984375 z m 0,0"
         style="fill:#000000;fill-opacity:1;fill-rule:nonzero;stroke:none" />
      <path
         id="path19"
         d="m 39.522188,-1.260125 h 1.078125 v -0.2460938 h -1.078125 v -1.2890625 h -0.246094 c 0,0.6328125 -0.292969,1.3242188 -0.960938,1.3359375 v 0.1992188 h 0.65625 v 1.88671875 c 0,0.77343745 0.585938,0.93749995 0.972657,0.93749995 0.46875,0 0.785156,-0.3984375 0.785156,-0.9492187 V 0.22815625 h -0.234375 v 0.375 c 0,0.48046875 -0.222656,0.73828125 -0.492188,0.73828125 -0.480468,0 -0.480468,-0.5859375 -0.480468,-0.71484375 z m 4.77539,1.16015625 c 0.140625,0 0.1875,0 0.1875,-0.15234375 0,-0.609375 -0.339844,-1.359375 -1.371094,-1.359375 -0.914062,0 -1.617187,0.7265625 -1.617187,1.58203125 0,0.87890625 0.773437,1.59374995 1.699219,1.59374995 0.949218,0 1.289062,-0.74999995 1.289062,-0.9023437 0,-0.0351563 -0.01172,-0.10546875 -0.117187,-0.10546875 -0.08203,0 -0.105469,0.046875 -0.117188,0.1171875 -0.222656,0.56249995 -0.75,0.66796875 -0.996094,0.66796875 -0.328125,0 -0.644531,-0.1523438 -0.855468,-0.41015625 -0.257813,-0.328125 -0.269532,-0.75 -0.269532,-1.03125 z M 42.141328,-0.27575 c 0.07031,-0.984375 0.703125,-1.1484375 0.972656,-1.1484375 0.855469,0 0.878907,0.97265625 0.890625,1.1484375 z m 5.276367,-1.1601563 c 0,-0.1171875 0,-0.1757812 -0.105468,-0.1757812 -0.03516,0 -0.04687,0 -0.140625,0.082031 -0.01172,0 -0.08203,0.070312 -0.117188,0.1054688 -0.210937,-0.1523438 -0.480469,-0.1875 -0.738281,-0.1875 -0.996094,0 -1.230469,0.515625 -1.230469,0.8671875 0,0.22265625 0.09375,0.41015625 0.257813,0.5390625 0.269531,0.234375 0.539062,0.28125 0.960937,0.3515625 0.351563,0.0703125 0.914063,0.1640625 0.914063,0.6328125 0,0.2695312 -0.1875,0.5859375 -0.855469,0.5859375 -0.667969,0 -0.914063,-0.43359375 -1.03125,-0.9140625 -0.02344,-0.0820313 -0.03516,-0.1171875 -0.128906,-0.1171875 -0.117188,0 -0.117188,0.046875 -0.117188,0.1875 v 0.8554687 c 0,0.1289063 0,0.1875 0.09375,0.1875 0.05859,0 0.199219,-0.1523437 0.339844,-0.3046875 0.304687,0.2929688 0.679687,0.3046875 0.84375,0.3046875 0.914062,0 1.242187,-0.4921875 1.242187,-0.98437495 0,-0.26953125 -0.117187,-0.46875 -0.292968,-0.64453125 -0.269532,-0.24609375 -0.585938,-0.29296875 -0.832032,-0.33984375 -0.5625,-0.09375 -1.007812,-0.17578125 -1.007812,-0.55078125 0,-0.2226563 0.1875,-0.4921875 0.84375,-0.4921875 0.808594,0 0.84375,0.5625 0.855469,0.76171875 0.01172,0.0820313 0.09375,0.0820313 0.117187,0.0820313 0.128906,0 0.128906,-0.046875 0.128906,-0.1875 z m 1.916016,0.1757813 h 1.078125 v -0.2460938 h -1.078125 v -1.2890625 h -0.246094 c 0,0.6328125 -0.292969,1.3242188 -0.960937,1.3359375 v 0.1992188 h 0.65625 v 1.88671875 c 0,0.77343745 0.585937,0.93749995 0.972656,0.93749995 0.46875,0 0.785156,-0.3984375 0.785156,-0.9492187 V 0.22815625 h -0.234375 v 0.375 c 0,0.48046875 -0.222656,0.73828125 -0.492187,0.73828125 -0.480469,0 -0.480469,-0.5859375 -0.480469,-0.71484375 z m 0,0"
         style="fill:#000000;fill-opacity:1;fill-rule:nonzero;stroke:none" />
    </g>
    <path
       id="path20"
       d="M 17.64973,-5.88261 121.1302,-40.38005"
       style="fill:none;stroke:#000000;stroke-width:0.3985;stroke-linecap:butt;stroke-linejoin:miter;stroke-miterlimit:10;stroke-dasharray:none;stroke-opacity:1"
       transform="matrix(1.3333333,0,0,-1.3333333,201.62133,321.012)"
       clip-path="url(#clipPath51)" />
    <path
       id="path21"
       d="M -1.19551,1.59401 C -1.09587,0.99626 0,0.09961 0.29886,0 0,-0.09961 -1.09587,-0.99626 -1.19551,-1.59401"
       style="fill:none;stroke:#000000;stroke-width:0.31879;stroke-linecap:round;stroke-linejoin:round;stroke-miterlimit:10;stroke-dasharray:none;stroke-opacity:1"
       transform="matrix(1.2648267,0.42165333,0.42165333,-1.2648267,363.12825,374.85205)"
       clip-path="url(#clipPath50)" />
    <path
       id="path22"
       d="m 2.3092734,-6.6786328 c -0.082031,-0.1171875 -0.09375,-0.1289063 -0.28125,-0.1289063 H 0.32880469 v 0.3164063 h 0.29296875 c 0.140625,0 0.33984375,0.011719 0.49218746,0.011719 0.234375,0.035156 0.2460938,0.046875 0.2460938,0.234375 v 5.203125 c 0,0.26953129 0,0.73828129 -1.03125001,0.73828129 v 0.3046875 c 0.3515625,-0.01171875 0.83203121,-0.03515625 1.17187501,-0.03515625 0.328125,0 0.8085937,0.0234375 1.1601562,0.03515625 v -0.3046875 c -1.03125,0 -1.03125,-0.46875 -1.03125,-0.73828129 v -5.1796875 c 0.058594,0.046875 0.070312,0.058594 0.1054688,0.1171875 l 4.0664062,5.97656254 c 0.082031,0.1171875 0.09375,0.12890625 0.1640625,0.12890625 0.140625,0 0.140625,-0.0703125 0.140625,-0.2578125 V -5.7528516 c 0,-0.2695312 0,-0.7382812 1.03125,-0.7382812 v -0.3164063 c -0.3515625,0.011719 -0.84375,0.035156 -1.171875,0.035156 -0.328125,0 -0.8203125,-0.023437 -1.1601562,-0.035156 v 0.3164063 c 1.0195312,0 1.0195312,0.46875 1.0195312,0.7382812 v 4.2539063 z m 9.8496096,4.546875 c 0,-1.2773438 -0.996094,-2.3320313 -2.1914064,-2.3320313 -1.2539063,0 -2.2148438,1.0898438 -2.2148438,2.3320313 0,1.28906249 1.03125,2.23828124 2.203125,2.23828124 1.2070312,0 2.2031252,-0.97265625 2.2031252,-2.23828124 z m -2.1914064,1.99218749 c -0.4335938,0 -0.8671875,-0.2109375 -1.1367188,-0.66796875 C 8.5729453,-1.2411328 8.5729453,-1.8505078 8.5729453,-2.2137891 c 0,-0.3867187 0,-0.9257812 0.2460938,-1.359375 0.2695312,-0.4570312 0.7382812,-0.6679687 1.1367187,-0.6679687 0.4335942,0 0.8671872,0.2226562 1.1250002,0.6445312 0.257812,0.4335938 0.257812,1.0078125 0.257812,1.3828125 0,0.3632813 0,0.9023438 -0.222656,1.33593754 -0.222656,0.4453125 -0.65625,0.73828125 -1.1484374,0.73828125 z m 0,0"
       style="fill:#000000;fill-opacity:1;fill-rule:nonzero;stroke:none"
       aria-label="No"
       transform="matrix(1.3333333,0,0,1.3333333,286.128,371.44)"
       clip-path="url(#clipPath49)" />
    <path
       id="path23"
       d="M 17.64973,5.87424 114.3215,38.11421"
       style="fill:none;stroke:#000000;stroke-width:0.3985;stroke-linecap:butt;stroke-linejoin:miter;stroke-miterlimit:10;stroke-dasharray:none;stroke-opacity:1"
       transform="matrix(1.3333333,0,0,-1.3333333,201.62133,321.012)"
       clip-path="url(#clipPath48)" />
    <path
       id="path24"
       d="M -1.19551,1.59401 C -1.09587,0.99626 0,0.09961 0.29886,0 0,-0.09961 -1.09587,-0.99626 -1.19551,-1.59401"
       style="fill:none;stroke:#000000;stroke-width:0.31879;stroke-linecap:round;stroke-linejoin:round;stroke-miterlimit:10;stroke-dasharray:none;stroke-opacity:1"
       transform="matrix(1.2648,-0.4218,-0.4218,-1.2648,354.05,270.19305)"
       clip-path="url(#clipPath47)" />
    <path
       id="path25"
       d="m 6.081,-5.8468906 c 0.3632813,-0.609375 0.9492188,-0.6445313 1.265625,-0.6445313 v -0.3164062 c -0.3046875,0.023437 -0.703125,0.035156 -0.9726562,0.035156 -0.3046875,0 -0.890625,-0.023437 -1.1484375,-0.035156 v 0.3164062 c 0.4101562,0 0.5742187,0.1875 0.5742187,0.3867188 0,0.1054687 -0.058594,0.234375 -0.1054687,0.2929687 l -1.640625,2.671875 -1.8046875,-2.9414062 c -0.070312,-0.09375 -0.070312,-0.1171875 -0.070312,-0.1640625 0,-0.2109375 0.2460937,-0.2460938 0.703125,-0.2460938 v -0.3164062 c -0.3632813,0.035156 -1.0898438,0.035156 -1.4765625,0.035156 -0.42187505,0 -0.8789063,-0.011719 -1.3007813,-0.035156 v 0.3164062 h 0.1875 c 0.66796875,0 0.75,0.1054688 0.9140625,0.3632813 l 2.0859375,3.4101562 v 1.94531252 c 0,0.3515625 -0.011719,0.46875 -0.7851562,0.46875 H 2.2724063 V 7.65625e-4 c 0.3515625,-0.035156255 1.0664062,-0.035156255 1.453125,-0.035156255 0.3867187,0 1.0898437,0 1.453125,0.035156255 V -0.30392188 h -0.234375 c -0.7617188,0 -0.796875,-0.10546875 -0.796875,-0.4921875 V -2.7179844 Z m 1.6787109,3.3398437 c 0.058594,-1.4882812 0.9023438,-1.734375 1.2421875,-1.734375 1.0195316,0 1.1249996,1.3476563 1.1249996,1.734375 z m -0.011719,0.2109375 h 2.7890631 c 0.210937,0 0.246093,0 0.246093,-0.2109375 0,-0.984375 -0.539062,-1.9570312 -1.7812499,-1.9570312 -1.1601562,0 -2.0742187,1.03125 -2.0742187,2.2734375 0,1.33593747 1.0429687,2.29687497 2.1914062,2.29687497 1.2187504,0 1.6640624,-1.1015625 1.6640624,-1.28906247 0,-0.1054688 -0.08203,-0.1171875 -0.128906,-0.1171875 -0.09375,0 -0.117187,0.058594 -0.128906,0.140625 -0.351563,1.01953122 -1.2539066,1.01953122 -1.3476566,1.01953122 -0.5039063,0 -0.9023438,-0.29296875 -1.125,-0.66796875 C 7.7479922,-1.2882969 7.7479922,-1.9445469 7.7479919,-2.2961094 Z m 5.3994141,0.3632813 c 0.222657,0.035156 1.03125,0.1992187 1.03125,0.9140625 0,0.51562497 -0.351562,0.91406247 -1.125,0.91406247 -0.832031,0 -1.195312,-0.57421875 -1.382812,-1.41796877 -0.03516,-0.1289062 -0.03516,-0.1757812 -0.140625,-0.1757812 -0.128906,0 -0.128906,0.070312 -0.128906,0.2578125 v 1.31249997 c 0,0.1640625 0,0.234375 0.105468,0.234375 0.05859,0 0.07031,0 0.257813,-0.19921875 0.01172,-0.01171875 0.01172,-0.03515625 0.199219,-0.22265625 0.433593,0.421875 0.878906,0.421875 1.089843,0.421875 1.148438,0 1.605469,-0.66796875 1.605469,-1.38281247 0,-0.5273438 -0.292969,-0.8203125 -0.421875,-0.9492188 -0.328125,-0.3164062 -0.714844,-0.3984375 -1.136719,-0.46875 -0.550781,-0.1171875 -1.21875,-0.2460937 -1.21875,-0.8203125 0,-0.3515625 0.257813,-0.7617187 1.113282,-0.7617187 1.101562,0 1.148437,0.9023437 1.171875,1.2070312 0,0.09375 0.09375,0.09375 0.117187,0.09375 0.128906,0 0.128906,-0.046875 0.128906,-0.2460937 v -0.9960938 c 0,-0.1757812 0,-0.2460937 -0.117187,-0.2460937 -0.04687,0 -0.07031,0 -0.199219,0.1171875 -0.02344,0.046875 -0.128906,0.1289062 -0.164062,0.1640625 -0.375,-0.28125 -0.785157,-0.28125 -0.9375,-0.28125 -1.21875,0 -1.59375,0.6679687 -1.59375,1.2304687 0,0.3398438 0.164062,0.6210938 0.433593,0.84375 0.316407,0.2578125 0.597657,0.3164063 1.3125,0.4570313 z m 0,0"
       style="fill:#000000;fill-opacity:1;fill-rule:nonzero;stroke:none"
       aria-label="Yes"
       transform="matrix(1.3333333,0,0,1.3333333,279.892,281.17867)"
       clip-path="url(#clipPath46)" />
    <path
       id="path26"
       d="M 140.39615,38.25977 243.33623,3.9396"
       style="fill:none;stroke:#000000;stroke-width:0.3985;stroke-linecap:butt;stroke-linejoin:miter;stroke-miterlimit:10;stroke-dasharray:none;stroke-opacity:1"
       transform="matrix(1.3333333,0,0,-1.3333333,201.62133,321.012)"
       clip-path="url(#clipPath45)" />
    <path
       id="path27"
       d="M -1.19551,1.59401 C -1.09587,0.99626 0,0.09961 0.29886,0 0,-0.09961 -1.09587,-0.99626 -1.19551,-1.59401"
       style="fill:none;stroke:#000000;stroke-width:0.31879;stroke-linecap:round;stroke-linejoin:round;stroke-miterlimit:10;stroke-dasharray:none;stroke-opacity:1"
       transform="matrix(1.2648267,0.42169333,0.42169333,-1.2648267,526.06961,315.75917)"
       clip-path="url(#clipPath44)" />
    <g
       id="g27"
       aria-label="1−r(x)"
       transform="matrix(1.3333333,0,0,1.3333333,435.41333,313.77333)"
       clip-path="url(#clipPath43)">
      <path
         id="path28"
         d="m 2.9302344,-6.3749219 c 0,-0.234375 0,-0.2578125 -0.234375,-0.2578125 -0.609375,0.6328125 -1.4882813,0.6328125 -1.80468752,0.6328125 v 0.3164063 c 0.19921872,0 0.78515622,0 1.30078122,-0.2578125 v 5.15624998 c 0,0.3515625 -0.035156,0.48046875 -0.9257812,0.48046875 H 0.94976563 V 7.8125e-5 C 1.3013281,-0.03507812 2.1567969,-0.03507812 2.5552344,-0.03507812 c 0.3984375,0 1.265625,0 1.6171875,0.035156245 V -0.30460937 H 3.8560156 c -0.9023437,0 -0.9257812,-0.1171875 -0.9257812,-0.48046875 z m 0,0"
         style="fill:#000000;fill-opacity:1;fill-rule:nonzero;stroke:none" />
      <path
         id="path29"
         d="m 13.758359,-2.2967969 c 0.175782,0 0.351563,0 0.351563,-0.1992187 0,-0.1992188 -0.175781,-0.1992188 -0.351563,-0.1992188 H 8.3677344 c -0.1640625,0 -0.3398438,0 -0.3398438,0.1992188 0,0.1992187 0.1757813,0.1992187 0.3398438,0.1992187 z m 0,0"
         style="fill:#000000;fill-opacity:1;fill-rule:nonzero;stroke:none" />
      <path
         id="path30"
         d="m 18.035703,-0.58585937 c -0.03516,0.15234375 -0.09375,0.375 -0.09375,0.421875 0,0.1875 0.140625,0.26953125 0.292969,0.26953125 0.117187,0 0.292969,-0.0703125 0.363281,-0.26953125 0.02344,-0.046875 0.363281,-1.39453123 0.398438,-1.58203123 0.08203,-0.328125 0.257812,-1.0195313 0.316406,-1.2890625 0.04687,-0.1289063 0.328125,-0.5976563 0.5625,-0.8203125 0.08203,-0.070312 0.375,-0.328125 0.796875,-0.328125 0.257812,0 0.410156,0.1171875 0.421875,0.1171875 -0.304688,0.046875 -0.515625,0.2929687 -0.515625,0.5507812 0,0.1640625 0.105469,0.3515625 0.375,0.3515625 0.269531,0 0.550781,-0.234375 0.550781,-0.5859375 0,-0.3515625 -0.328125,-0.65625 -0.832031,-0.65625 -0.644531,0 -1.089844,0.4921875 -1.277344,0.7734375 -0.08203,-0.4570312 -0.433594,-0.7734375 -0.902344,-0.7734375 -0.457031,0 -0.644531,0.3867188 -0.738281,0.5742188 -0.175781,0.3398437 -0.304687,0.9375 -0.304687,0.9609375 0,0.1054687 0.09375,0.1054687 0.117187,0.1054687 0.09375,0 0.105469,-0.011719 0.164063,-0.234375 0.175781,-0.703125 0.375,-1.1835937 0.726562,-1.1835937 0.175781,0 0.316406,0.082031 0.316406,0.4570312 0,0.2109375 -0.03516,0.3164063 -0.164062,0.8320313 z m 0,0"
         style="fill:#000000;fill-opacity:1;fill-rule:nonzero;stroke:none" />
      <path
         id="path31"
         d="m 25.222227,2.3907031 c 0,-0.035156 0,-0.046875 -0.164063,-0.2226562 -1.242187,-1.25390627 -1.570312,-3.12890627 -1.570312,-4.6640625 0,-1.7226563 0.386718,-3.4570313 1.605468,-4.7109375 0.128907,-0.1171875 0.128907,-0.1289063 0.128907,-0.1640625 0,-0.070312 -0.03516,-0.1054688 -0.09375,-0.1054688 -0.105469,0 -0.996094,0.6796875 -1.582032,1.9453125 -0.515625,1.1015625 -0.632812,2.203125 -0.632812,3.0351563 0,0.7851562 0.117187,1.99218748 0.65625,3.11718748 0.597656,1.21875002 1.453125,1.87500002 1.558594,1.87500002 0.05859,0 0.09375,-0.035156 0.09375,-0.1054688 z m 0,0"
         style="fill:#000000;fill-opacity:1;fill-rule:nonzero;stroke:none" />
      <path
         id="path32"
         d="m 29.133359,-3.0116406 c 0.05859,-0.2578125 0.292969,-1.171875 0.984375,-1.171875 0.04687,0 0.292969,0 0.503907,0.1289062 -0.28125,0.046875 -0.480469,0.3046875 -0.480469,0.5390625 0,0.1640625 0.105469,0.3515625 0.375,0.3515625 0.222656,0 0.539062,-0.1875 0.539062,-0.5859375 0,-0.515625 -0.585937,-0.65625 -0.925781,-0.65625 -0.574219,0 -0.925781,0.5273438 -1.042969,0.7617188 -0.257812,-0.65625 -0.785156,-0.7617188 -1.078125,-0.7617188 -1.042968,0 -1.605468,1.2890625 -1.605468,1.5351563 0,0.1054687 0.105468,0.1054687 0.117187,0.1054687 0.08203,0 0.117188,-0.023437 0.128906,-0.1171875 0.339844,-1.0546875 0.996094,-1.3007812 1.335938,-1.3007812 0.1875,0 0.539062,0.09375 0.539062,0.6679687 0,0.3046875 -0.164062,0.9726563 -0.539062,2.3671875 -0.152344,0.62109378 -0.503906,1.04296878 -0.949219,1.04296878 -0.05859,0 -0.28125,0 -0.492187,-0.12890625 0.246093,-0.0585938 0.46875,-0.26953125 0.46875,-0.5390625 0,-0.26953123 -0.222657,-0.35156253 -0.375,-0.35156253 -0.292969,0 -0.539063,0.25781253 -0.539063,0.57421878 0,0.45703125 0.492188,0.65625 0.9375,0.65625 0.65625,0 1.007813,-0.69140625 1.042969,-0.75 0.117187,0.36328125 0.480469,0.75 1.078125,0.75 1.019531,0 1.59375,-1.27734378 1.59375,-1.53515628 0,-0.09375 -0.09375,-0.09375 -0.128906,-0.09375 -0.08203,0 -0.105469,0.035156 -0.128907,0.1054688 -0.328125,1.06640623 -0.996093,1.31249998 -1.324218,1.31249998 -0.386719,0 -0.539063,-0.328125 -0.539063,-0.65625 0,-0.22265625 0.05859,-0.44531248 0.164063,-0.87890628 z m 0,0"
         style="fill:#000000;fill-opacity:1;fill-rule:nonzero;stroke:none" />
      <path
         id="path33"
         d="m 34.38043,-2.4960156 c 0,-0.7734375 -0.117188,-1.9804688 -0.65625,-3.1054688 -0.597657,-1.21875 -1.464844,-1.875 -1.558594,-1.875 -0.05859,0 -0.105469,0.046875 -0.105469,0.1054688 0,0.035156 0,0.046875 0.199219,0.234375 0.972656,0.984375 1.535156,2.5664062 1.535156,4.640625 0,1.71093748 -0.363281,3.45703123 -1.59375,4.7226562 -0.140625,0.1171875 -0.140625,0.1289063 -0.140625,0.1640625 0,0.058594 0.04687,0.1054688 0.105469,0.1054688 0.09375,0 0.996094,-0.6796875 1.582031,-1.94531252 0.503906,-1.1015625 0.632813,-2.20312498 0.632813,-3.04687498 z m 0,0"
         style="fill:#000000;fill-opacity:1;fill-rule:nonzero;stroke:none" />
    </g>
    <path
       id="path34"
       d="M 140.39615,46.79236 243.33609,81.11194"
       style="fill:none;stroke:#000000;stroke-width:0.3985;stroke-linecap:butt;stroke-linejoin:miter;stroke-miterlimit:10;stroke-dasharray:none;stroke-opacity:1"
       transform="matrix(1.3333333,0,0,-1.3333333,201.62133,321.012)"
       clip-path="url(#clipPath42)" />
    <path
       id="path35"
       d="M -1.19551,1.59401 C -1.09587,0.99626 0,0.09961 0.29886,0 0,-0.09961 -1.09587,-0.99626 -1.19551,-1.59401"
       style="fill:none;stroke:#000000;stroke-width:0.31879;stroke-linecap:round;stroke-linejoin:round;stroke-miterlimit:10;stroke-dasharray:none;stroke-opacity:1"
       transform="matrix(1.2648267,-0.42166667,-0.42166667,-1.2648267,526.06943,212.86275)"
       clip-path="url(#clipPath41)" />
    <g
       id="g35"
       aria-label="r(x)"
       transform="matrix(1.3333333,0,0,1.3333333,446.852,221.492)"
       clip-path="url(#clipPath40)">
      <path
         id="path36"
         d="m 0.87857812,-0.58579688 c -0.0351563,0.15234375 -0.09375,0.375 -0.09375,0.421875 0,0.1875 0.140625,0.26953125 0.29296878,0.26953125 0.1171875,0 0.2929687,-0.0703125 0.3632812,-0.26953125 0.023437,-0.046875 0.3632813,-1.39453122 0.3984375,-1.58203122 0.082031,-0.328125 0.2578125,-1.0195313 0.3164063,-1.2890625 0.046875,-0.1289063 0.328125,-0.5976563 0.5625,-0.8203125 0.082031,-0.070312 0.375,-0.328125 0.796875,-0.328125 0.2578125,0 0.4101562,0.1171875 0.421875,0.1171875 -0.3046875,0.046875 -0.515625,0.2929687 -0.515625,0.5507812 0,0.1640625 0.1054687,0.3515625 0.375,0.3515625 0.2695312,0 0.5507812,-0.234375 0.5507812,-0.5859375 0,-0.3515625 -0.328125,-0.65625 -0.8320312,-0.65625 -0.6445313,0 -1.0898438,0.4921875 -1.2773438,0.7734375 -0.082031,-0.4570312 -0.4335937,-0.7734375 -0.9023437,-0.7734375 -0.45703128,0 -0.64453128,0.3867188 -0.73828128,0.5742188 -0.17578125,0.3398437 -0.3046875,0.9375 -0.3046875,0.9609375 0,0.1054687 0.09375,0.1054687 0.1171875,0.1054687 0.09375,0 0.10546875,-0.011719 0.1640625,-0.234375 0.17578125,-0.703125 0.375,-1.1835937 0.72656248,-1.1835937 0.1757813,0 0.3164063,0.082031 0.3164063,0.4570312 0,0.2109375 -0.035156,0.3164063 -0.1640625,0.8320313 z m 0,0"
         style="fill:#000000;fill-opacity:1;fill-rule:nonzero;stroke:none" />
      <path
         id="path37"
         d="m 8.0651016,2.3907656 c 0,-0.035156 0,-0.046875 -0.1640625,-0.2226562 -1.2421875,-1.25390628 -1.5703125,-3.12890628 -1.5703125,-4.6640625 0,-1.7226563 0.3867187,-3.4570313 1.6054687,-4.7109375 0.1289063,-0.1171875 0.1289063,-0.1289063 0.1289063,-0.1640625 0,-0.070312 -0.035156,-0.1054688 -0.09375,-0.1054688 -0.1054688,0 -0.9960938,0.6796875 -1.5820313,1.9453125 -0.515625,1.1015625 -0.6328125,2.203125 -0.6328125,3.0351563 0,0.7851562 0.1171875,1.99218747 0.65625,3.11718747 0.5976563,1.21875003 1.453125,1.87500003 1.5585938,1.87500003 0.058594,0 0.09375,-0.035156 0.09375,-0.1054688 z m 0,0"
         style="fill:#000000;fill-opacity:1;fill-rule:nonzero;stroke:none" />
      <path
         id="path38"
         d="m 11.973305,-3.0115781 c 0.05859,-0.2578125 0.292968,-1.171875 0.984375,-1.171875 0.04687,0 0.292968,0 0.503906,0.1289062 -0.28125,0.046875 -0.480469,0.3046875 -0.480469,0.5390625 0,0.1640625 0.105469,0.3515625 0.375,0.3515625 0.222656,0 0.539063,-0.1875 0.539063,-0.5859375 0,-0.515625 -0.585938,-0.65625 -0.925782,-0.65625 -0.574218,0 -0.925781,0.5273438 -1.042968,0.7617188 -0.257813,-0.65625 -0.785157,-0.7617188 -1.078125,-0.7617188 -1.0429691,0 -1.6054691,1.2890625 -1.6054691,1.5351563 0,0.1054687 0.1054688,0.1054687 0.1171875,0.1054687 0.082031,0 0.1171875,-0.023437 0.1289063,-0.1171875 0.3398437,-1.0546875 0.9960933,-1.3007812 1.3359373,-1.3007812 0.1875,0 0.539063,0.09375 0.539063,0.6679687 0,0.3046875 -0.164063,0.9726563 -0.539063,2.3671875 -0.152344,0.62109377 -0.503906,1.04296877 -0.9492186,1.04296877 -0.058594,0 -0.28125,0 -0.4921875,-0.12890625 0.2460938,-0.0585938 0.46875,-0.26953125 0.46875,-0.5390625 0,-0.26953122 -0.2226562,-0.35156252 -0.375,-0.35156252 -0.2929687,0 -0.5390625,0.25781252 -0.5390625,0.57421877 0,0.45703125 0.4921875,0.65625 0.9375,0.65625 0.6562496,0 1.0078126,-0.69140625 1.0429686,-0.75 0.117188,0.36328125 0.480469,0.75 1.078125,0.75 1.019531,0 1.59375,-1.27734377 1.59375,-1.53515627 0,-0.09375 -0.09375,-0.09375 -0.128906,-0.09375 -0.08203,0 -0.105469,0.035156 -0.128906,0.1054688 -0.328125,1.06640622 -0.996094,1.31249997 -1.324219,1.31249997 -0.386719,0 -0.539063,-0.328125 -0.539063,-0.65625 0,-0.22265625 0.05859,-0.44531247 0.164063,-0.87890627 z m 0,0"
         style="fill:#000000;fill-opacity:1;fill-rule:nonzero;stroke:none" />
      <path
         id="path39"
         d="m 17.223305,-2.4959531 c 0,-0.7734375 -0.117188,-1.9804688 -0.65625,-3.1054688 -0.597657,-1.21875 -1.464844,-1.875 -1.558594,-1.875 -0.05859,0 -0.105469,0.046875 -0.105469,0.1054688 0,0.035156 0,0.046875 0.199219,0.234375 0.972656,0.984375 1.535156,2.5664062 1.535156,4.640625 0,1.71093747 -0.363281,3.45703122 -1.59375,4.7226562 -0.140625,0.1171875 -0.140625,0.1289063 -0.140625,0.1640625 0,0.058594 0.04687,0.1054688 0.105469,0.1054688 0.09375,0 0.996094,-0.6796875 1.582031,-1.94531253 0.503906,-1.1015625 0.632813,-2.20312497 0.632813,-3.04687497 z m 0,0"
         style="fill:#000000;fill-opacity:1;fill-rule:nonzero;stroke:none" />
    </g>
  </g>
</svg>
