<?xml version="1.0" encoding="UTF-8"?>
<svg xmlns="http://www.w3.org/2000/svg" xmlns:xlink="http://www.w3.org/1999/xlink" width="313pt" height="307.36pt" viewBox="0 0 313 307.36" version="1.1"><!--latexit:AAAIWHjaxVRbbBRVGD5nD1Aol92We7kd6KJdurvspdC6sNiWWsDCctlett1dltmZ
s9thZ2eWmbMty2aTE2OID/JmJGqiUl7EELwbQ6IvojFeiJaGoMYYnoyJD4YY4+XF
MzNNbU3BN53JZP7z///5/++/ZkuKbNBAYAo60IKFi+rqE+4xohuypg67BV0clfmp
3021UsKtZU8TkRqNAJ5/OeNyxuJ9pEKkrmmlrxYv6dc1jTL4mmvr0mXbH3q4xbOj
1evz79y1Z29nz+N9x0+MJE8KJHe6WKLlAbdaVpRby1c4XU3uoVjcXyAVY4T/p50M
ukVFMIwrDY0rV61es3bdeuZgiC1gC9kiVscWsyWs/sqGjZs2b8FbtzWzpWwZW8Gc
rIE1sQ1sE9vMcCIrGESRVTIgaoqm9xc1iQxQmSokUdKJUMwqJF0U8qqck0WB8nD7
JYESHlZWEAt5XSur0n7z4oihlXWR9JOztLlzW6r1ma87K7cCQWco3DYQi5840J2K
xS3FeEkQSW8A8xe4IFs+ubu945EROwxVKJKETRJjaPrCREckEYsfteJ1gUlndN+j
wzwBBtVlNc9cx7iBrm4rz0fKVOB445bkctd+8559uPWYs/fAwUMzZw6mi3IqW6bE
YI1sPVuZaYALUpImlotEpRaEZDBQoumqoFNZVEitPlU2CAdfEPIkyUkTrJGuWmmr
4e2cI+GcpvNPpdjizr5RFYqGUSlmuWZRoKPGP2Umc15ZNqspEpdgWZXMEmi6MRcJ
zXWkq7Ja4qGoog0kV1Yw1TCtlAiWZJ0nTqlwQhB1mceCxVFBF0RK5lqqUrlwrlZv
9trh2LFLR9iqS0fZarZuMBbv5SFNxfsHnINDiWF+jsvnCM9lrlcR8gY/x3gqmjtb
gPW4XGwNWzt4RFMFUePFSaWnLUykIvyYOcWT3yOLZi8JemUiYzKzYsbVOKsmkl2m
CSkyL7+5s9v2NZl3jsrmWFCZI+j68Myp3b8/Mcg2cpMFhbvt4b06UYiYjaiG23qD
mL+ALTfb4czBQ2yLXXjUl8qSvKxaGShxaGWd1JKGKCgkGt7Zlq7Hs56UpAvjSd++
NG4JeLEv5ME+n0WGPHvup+gLenHAVgyb1HyKklYUZDUaiIR3B7xGkW+IUe+YoMtm
R0dT1GsIxZJCjCgXzwVUUjSKW3gfGi0p6sE7cEsQt+IQJ6ZZnpq3asjqfaUPguML
BSKhefFYHR7VieTFdFQWCzMA2/5LfKF2nrDgAwBmlTL5fxDu9e3z2nsARzHPU9oq
vi+4024ZlS9anCzK0rhQ4XqyzneMF+dkRbHVvXzgVaJjPp+cEeSbCFdrlgnTwr86
NOM2W9QfDO8yvfrDbe0zfu/n1k7WvH6D/kCw3TLUEeyY5T5FVGnO3PDRGxvPuFbO
rOO/Z/3yWCYCFoMG0ATcwANCoB0cAofBcRAH46AGngRPg4vgRfAKeBVcBdfA6+BN
8DZ4F7wHroMb4GPwCfgUfA5ugi/BJJgCt8EdcBf8AH4C98CfcAlcATFshW1wD+yC
MTgAh+AwPAllqMNzsAbPw6fgBXgRPgefhy/BN+A78AP4EbwJv4Xfwe/hXcePjp8d
9xy/OH51/Ob4A0FUjxpQE9qKdiAv8qMAakd70X7Ui/pQAiXRKVRGZ9EF9Cx6AV1G
V9E19Ba6jt5HN9Bn6As0hW6jO+ibOk+dv67H3lMOaP/BWTDnqTv4F/ViiU4=-->
<defs>
<clipPath id="clip1">
  <path d="M 76 1 L 78 1 L 78 307.179688 L 76 307.179688 Z M 76 1 "/>
</clipPath>
<clipPath id="clip2">
  <path d="M 70 0.179688 L 84 0.179688 L 84 7 L 70 7 Z M 70 0.179688 "/>
</clipPath>
<clipPath id="clip3">
  <path d="M 46 0.179688 L 313 0.179688 L 313 307.179688 L 46 307.179688 Z M 46 0.179688 "/>
</clipPath>
<clipPath id="clip4">
  <path d="M 36 189 L 230 189 L 230 307.179688 L 36 307.179688 Z M 36 189 "/>
</clipPath>
<clipPath id="clip5">
  <path d="M 68 237 L 174 237 L 174 307.179688 L 68 307.179688 Z M 68 237 "/>
</clipPath>
</defs>
<g id="surface1">
<g clip-path="url(#clip1)" clip-rule="nonzero">
<path style="fill:none;stroke-width:0.3985;stroke-linecap:butt;stroke-linejoin:miter;stroke:rgb(0%,0%,0%);stroke-opacity:1;stroke-miterlimit:10;" d="M -0.000496528 -42.520208 L -0.000496528 42.06204 " transform="matrix(3.6,0,0,-3.6,76.7596,153.521)"/>
</g>
<g clip-path="url(#clip2)" clip-rule="nonzero">
<path style="fill:none;stroke-width:0.31879;stroke-linecap:round;stroke-linejoin:round;stroke:rgb(0%,0%,0%);stroke-opacity:1;stroke-miterlimit:10;" d="M -1.195623 1.594464 C -1.095797 0.99659 0.000123264 0.0992378 0.298517 0.000496528 C 0.000123264 -0.0993299 -1.095797 -0.996682 -1.195623 -1.59347 " transform="matrix(0,-3.6,-3.6,0,76.7596,2.0981)"/>
</g>
<path style="fill:none;stroke-width:0.3985;stroke-linecap:butt;stroke-linejoin:miter;stroke:rgb(0%,0%,0%);stroke-opacity:1;stroke-miterlimit:10;" d="M -21.260262 0.000407986 L 63.321986 0.000407986 " transform="matrix(3.6,0,0,-3.6,76.7596,153.521)"/>
<path style="fill:none;stroke-width:0.31879;stroke-linecap:round;stroke-linejoin:round;stroke:rgb(0%,0%,0%);stroke-opacity:1;stroke-miterlimit:10;" d="M -1.195788 1.594375 C -1.095962 0.996502 -0.0000416667 0.0991493 0.298352 0.000407986 C -0.0000416667 -0.0994184 -1.095962 -0.996771 -1.195788 -1.593559 " transform="matrix(3.6,0,0,-3.6,304.7189,153.521)"/>
<g clip-path="url(#clip3)" clip-rule="nonzero">
<path style="fill:none;stroke-width:0.3985;stroke-linecap:butt;stroke-linejoin:miter;stroke:rgb(0%,0%,0%);stroke-opacity:1;stroke-miterlimit:10;" d="M 63.779885 0.000407986 C 63.779885 0.000407986 63.771205 0.80553 63.762524 1.114774 C 63.752759 1.424019 63.732142 1.920981 63.713696 2.230226 C 63.69525 2.53947 63.658358 3.035347 63.631231 3.343507 C 63.604104 3.651667 63.553106 4.146458 63.517299 4.453533 C 63.481491 4.760608 63.416387 5.253229 63.371899 5.559219 C 63.326326 5.865208 63.246031 6.354575 63.192863 6.659479 C 63.138609 6.963299 63.047464 7.45158 62.98453 7.754314 C 62.921595 8.057049 62.814174 8.54099 62.742559 8.841554 C 62.670944 9.142118 62.549417 9.622804 62.470207 9.921198 C 62.389911 10.219592 62.253193 10.695937 62.165302 10.991076 C 62.076326 11.286215 61.925502 11.759306 61.828931 12.051189 C 61.731274 12.344158 61.569599 12.811823 61.463262 13.101536 C 61.35801 13.390165 61.180059 13.851319 61.066127 14.137778 C 60.952194 14.423151 60.764477 14.879965 60.641865 15.162083 C 60.520337 15.444201 60.317429 15.894505 60.18722 16.173368 C 60.055927 16.451146 59.838913 16.893854 59.701109 17.168377 C 59.56222 17.442899 59.335441 17.879097 59.188957 18.14928 C 59.043557 18.418377 58.803757 18.846979 58.650762 19.111736 C 58.496682 19.377578 58.243861 19.798585 58.083271 20.059002 C 57.921595 20.319418 57.657924 20.73283 57.488653 20.986736 C 57.320467 21.241727 57.042689 21.645373 56.866908 21.894939 C 56.691127 22.144505 56.404668 22.540556 56.222377 22.784696 C 56.040085 23.028837 55.741691 23.415122 55.552889 23.652752 C 55.363002 23.891467 55.053757 24.269071 54.858444 24.501276 C 54.662047 24.733481 54.344122 25.100234 54.141214 25.327014 C 53.939391 25.552708 53.608444 25.908611 53.400111 26.127795 C 53.191778 26.346979 52.853236 26.694201 52.638392 26.906875 C 52.424634 27.120634 52.077411 27.45592 51.857142 27.662083 C 51.636873 27.868247 51.277715 28.193767 51.052021 28.39342 C 50.826326 28.593073 50.461743 28.906658 50.230623 29.098715 C 50.000589 29.290773 49.624069 29.592422 49.387524 29.776884 C 49.152064 29.961345 48.77012 30.252144 48.530319 30.430095 C 48.289434 30.606962 47.898809 30.885825 47.653583 31.055095 C 47.408358 31.224366 47.011222 31.490208 46.761656 31.652969 C 46.51209 31.815729 46.108444 32.069635 45.854538 32.2248 C 45.601717 32.37888 45.192646 32.619766 44.935484 32.76625 C 44.677238 32.912734 44.261656 33.141684 44.00124 33.280573 C 43.739738 33.419462 43.317646 33.635391 43.053974 33.765599 C 42.789217 33.895807 42.362785 34.098715 42.095858 34.220243 C 41.828931 34.342856 41.398158 34.532743 41.127976 34.646675 C 40.857793 34.760608 40.423766 34.937474 40.151413 35.043811 C 39.877976 35.149062 39.438523 35.310738 39.162915 35.408394 C 38.888392 35.50605 38.446769 35.654705 38.170076 35.743681 C 37.894469 35.832656 37.44959 35.96829 37.170727 36.048585 C 36.89295 36.12888 36.444816 36.251493 36.165953 36.323108 C 35.886005 36.395807 35.435701 36.503229 35.155753 36.567248 C 34.87472 36.630182 34.424417 36.725668 34.142299 36.779922 C 33.861266 36.83526 33.407707 36.915556 33.125589 36.962214 C 32.844556 37.008872 32.392082 37.077231 32.109964 37.115208 C 31.827845 37.153186 31.373201 37.206354 31.091083 37.235651 C 30.80788 37.264948 30.355406 37.305095 30.073288 37.325712 C 29.79117 37.347413 29.338696 37.373455 29.057663 37.386476 C 28.775545 37.398411 28.324156 37.411432 28.044208 37.415773 C 27.763175 37.420113 27.313957 37.419028 27.034009 37.414687 C 26.755146 37.410347 26.307012 37.397326 26.028149 37.384306 C 25.749286 37.371285 25.304408 37.344158 25.027715 37.323542 C 24.751023 37.302925 24.308314 37.262778 24.033792 37.233481 C 23.759269 37.204184 23.319816 37.152101 23.046378 37.114123 C 22.774026 37.077231 22.338913 37.011042 22.068731 36.966554 C 21.798549 36.920981 21.366691 36.842856 21.098679 36.789687 C 20.830667 36.736519 20.403149 36.646458 20.138392 36.585694 C 19.873635 36.524931 19.450458 36.420764 19.187872 36.352405 C 18.92637 36.284045 18.509703 36.169028 18.251457 36.093073 C 17.99321 36.017118 17.580884 35.887995 17.325892 35.80553 C 17.070901 35.721979 16.66617 35.584175 16.414434 35.494115 C 16.163783 35.404054 15.764477 35.253229 15.517082 35.155573 C 15.270771 35.057917 14.876891 34.895156 14.633835 34.79099 C 14.39078 34.686823 14.00558 34.514297 13.766865 34.402535 C 13.529234 34.291858 13.150545 34.108481 12.917255 33.991293 C 12.683965 33.873021 12.312872 33.679878 12.083922 33.555095 C 11.854972 33.431398 11.492559 33.227405 11.269035 33.096111 C 11.04551 32.965903 10.690693 32.753229 10.471509 32.61651 C 10.25341 32.479792 9.907273 32.256267 9.694599 32.114123 C 9.48084 31.971979 9.142299 31.738689 8.93505 31.59112 C 8.727802 31.44355 8.400111 31.202665 8.198288 31.04967 C 7.996465 30.896675 7.677455 30.646024 7.481057 30.487604 C 7.28466 30.328099 6.9765 30.069852 6.786613 29.907092 C 6.596726 29.744332 6.297247 29.47849 6.11387 29.310304 C 5.930493 29.142118 5.64078 28.868681 5.462828 28.696155 C 5.285962 28.522543 5.007099 28.242595 4.835658 28.065729 C 4.665302 27.888863 4.396205 27.600234 4.232359 27.419028 C 4.067429 27.238906 3.809182 26.944852 3.651847 26.759306 C 3.494512 26.574844 3.247116 26.275365 3.096292 26.087648 C 2.945467 25.898845 2.708922 25.592856 2.564608 25.400799 C 2.420293 25.208741 2.195684 24.898411 2.05788 24.704184 C 1.921161 24.508872 1.707403 24.194201 1.577194 23.996719 C 1.448071 23.798151 1.244078 23.478056 1.121465 23.277318 C 0.997767 23.07658 0.806795 22.753229 0.690693 22.550321 C 0.57459 22.347413 0.394469 22.020807 0.285962 21.815729 C 0.177455 21.610651 0.0103542 21.28079 -0.0916424 21.074627 C -0.192554 20.867378 -0.349889 20.534262 -0.44429 20.325929 C -0.537606 20.11651 -0.683005 19.781224 -0.770896 19.571806 C -0.857701 19.361302 -0.991165 19.023845 -1.070375 18.812257 C -1.15067 18.601753 -1.272198 18.262127 -1.344898 18.049453 C -1.416512 17.837865 -1.527189 17.497153 -1.592293 17.285564 C -1.657398 17.072891 -1.755054 16.732179 -1.813648 16.519505 C -1.871156 16.306832 -1.957962 15.965035 -2.00896 15.751276 C -2.059958 15.538602 -2.134828 15.197891 -2.178231 14.985217 C -2.221634 14.772543 -2.285653 14.430747 -2.32146 14.219158 C -2.358352 14.006484 -2.410436 13.666858 -2.438648 13.455269 C -2.467944 13.243681 -2.509177 12.904054 -2.530878 12.692465 C -2.553665 12.481962 -2.582962 12.144505 -2.598153 11.935087 C -2.613344 11.724583 -2.63179 11.389297 -2.64047 11.182049 C -2.648066 10.973715 -2.655661 10.640599 -2.656747 10.433351 C -2.657832 10.227187 -2.654576 9.896241 -2.649151 9.691163 C -2.643726 9.486085 -2.62962 9.158394 -2.617684 8.955486 C -2.605748 8.752578 -2.580792 8.429227 -2.562345 8.22849 C -2.543899 8.027752 -2.508092 7.707656 -2.483135 7.509089 C -2.458179 7.311606 -2.412606 6.994766 -2.381139 6.799453 C -2.349672 6.604141 -2.294333 6.293811 -2.257441 6.100668 C -2.219464 5.908611 -2.154359 5.601536 -2.110957 5.412734 C -2.067554 5.222847 -1.992684 4.921198 -1.942771 4.735651 C -1.893943 4.549019 -1.809307 4.25388 -1.753969 4.070503 C -1.69863 3.888212 -1.606399 3.598498 -1.545635 3.419462 C -1.483786 3.240425 -1.38179 2.956137 -1.315601 2.780356 C -1.249411 2.60566 -1.138734 2.327882 -1.06712 2.157526 C -0.995505 1.986085 -0.876148 1.715903 -0.800193 1.548802 C -0.723153 1.381701 -0.5962 1.11803 -0.514819 0.955269 C -0.433439 0.792509 -0.297806 0.535347 -0.212085 0.376927 C -0.12528 0.218507 0.0168646 -0.029974 0.106925 -0.184054 C 0.198071 -0.337049 0.347811 -0.579019 0.442212 -0.726589 C 0.537698 -0.875243 0.693948 -1.109618 0.793774 -1.253932 C 0.892516 -1.397161 1.055276 -1.622856 1.159443 -1.761745 C 1.262524 -1.900634 1.43071 -2.117648 1.538132 -2.251111 C 1.645554 -2.384575 1.82025 -2.593993 1.930927 -2.722031 C 2.041604 -2.850069 2.220641 -3.050807 2.334573 -3.17342 C 2.448505 -3.296033 2.635137 -3.48809 2.752325 -3.605278 C 2.869512 -3.722465 3.059399 -3.905842 3.178757 -4.017604 C 3.2992 -4.129366 3.493427 -4.302977 3.61604 -4.409314 C 3.738653 -4.515651 3.938306 -4.680582 4.063089 -4.780408 C 4.187872 -4.881319 4.39078 -5.037569 4.517733 -5.130885 C 4.645771 -5.225286 4.850849 -5.371771 4.979972 -5.460747 C 5.109095 -5.548637 5.318514 -5.686441 5.449807 -5.768906 C 5.581101 -5.851372 5.791604 -5.97941 5.925068 -6.05645 C 6.057446 -6.132405 6.271205 -6.251762 6.405753 -6.322292 C 6.539217 -6.392821 6.755146 -6.501328 6.889694 -6.566432 C 7.025328 -6.631536 7.242342 -6.730278 7.377976 -6.788872 C 7.513609 -6.847465 7.731708 -6.937526 7.868427 -6.990694 C 8.005146 -7.042778 8.225415 -7.124158 8.362134 -7.170816 C 8.498852 -7.217474 8.718036 -7.286918 8.854755 -7.328151 C 8.991474 -7.369384 9.211743 -7.430148 9.348462 -7.46487 C 9.485181 -7.499592 9.70545 -7.551675 9.842168 -7.580972 C 9.978887 -7.610269 10.196986 -7.651502 10.333705 -7.675373 C 10.469339 -7.69816 10.687438 -7.730712 10.823071 -7.748073 C 10.958705 -7.765434 11.174634 -7.78822 11.309182 -7.800156 C 11.442646 -7.812092 11.65749 -7.826198 11.790953 -7.832708 C 11.924417 -7.838134 12.13709 -7.843559 12.268384 -7.843559 C 12.400762 -7.843559 12.610181 -7.840304 12.740389 -7.834878 C 12.870597 -7.829453 13.077845 -7.816432 13.205884 -7.805582 C 13.335007 -7.795816 13.539 -7.774115 13.665953 -7.757839 C 13.791821 -7.741563 13.992559 -7.711181 14.116257 -7.690564 C 14.24104 -7.668863 14.438523 -7.630885 14.56005 -7.604844 C 14.681578 -7.577717 14.87472 -7.531059 14.994078 -7.499592 C 15.112351 -7.468125 15.301153 -7.413872 15.417255 -7.378064 C 15.533358 -7.341172 15.717819 -7.279323 15.830667 -7.23809 C 15.943514 -7.196858 16.12255 -7.126328 16.233227 -7.080755 C 16.342819 -7.034097 16.517516 -6.957057 16.623852 -6.907144 C 16.730189 -6.857231 16.898375 -6.772595 17.001457 -6.717257 C 17.104538 -6.663003 17.268384 -6.571858 17.367125 -6.513264 C 17.466951 -6.45467 17.624286 -6.357014 17.719773 -6.29408 C 17.815259 -6.231146 17.967168 -6.126979 18.058314 -6.059705 C 18.14946 -5.993516 18.292689 -5.882839 18.38058 -5.812309 C 18.467385 -5.74178 18.604104 -5.625677 18.687655 -5.551892 C 18.771205 -5.478108 18.901413 -5.35658 18.980623 -5.27954 C 19.058748 -5.2025 19.183531 -5.075547 19.258401 -4.995252 C 19.332186 -4.913872 19.448288 -4.782578 19.517733 -4.700113 C 19.587177 -4.616563 19.694599 -4.479844 19.759703 -4.394123 C 19.824807 -4.307318 19.926804 -4.167344 19.986483 -4.078368 C 20.047247 -3.989392 20.140563 -3.845078 20.195901 -3.753932 C 20.25124 -3.662786 20.33479 -3.514132 20.385788 -3.420816 C 20.435701 -3.3275 20.512741 -3.176675 20.557229 -3.081189 C 20.602802 -2.985703 20.670076 -2.831623 20.710224 -2.735052 C 20.750372 -2.637396 20.811135 -2.481146 20.845858 -2.382405 C 20.88058 -2.283663 20.932663 -2.124158 20.96196 -2.024332 C 20.991257 -1.924505 21.03466 -1.76283 21.058531 -1.661918 C 21.083488 -1.561007 21.11821 -1.398247 21.137741 -1.29625 C 21.156188 -1.194253 21.182229 -1.030408 21.196335 -0.928411 C 21.209356 -0.82533 21.226717 -0.660399 21.234313 -0.557318 C 21.242993 -0.454236 21.251674 -0.289306 21.253844 -0.186224 C 21.257099 -0.0831424 21.258184 0.0817882 21.254929 0.18487 C 21.252759 0.287951 21.242993 0.452882 21.234313 0.555964 C 21.226717 0.659045 21.209356 0.825061 21.196335 0.927057 C 21.182229 1.030139 21.155102 1.193984 21.136656 1.294896 C 21.117125 1.396892 21.083488 1.559653 21.058531 1.660564 C 21.03466 1.761476 20.991257 1.923151 20.96196 2.022977 C 20.932663 2.122804 20.88058 2.282309 20.845858 2.38105 C 20.811135 2.479792 20.751457 2.636042 20.711309 2.733698 C 20.671161 2.830269 20.602802 2.984349 20.557229 3.079835 C 20.512741 3.175321 20.435701 3.327231 20.385788 3.420547 C 20.33479 3.513863 20.25124 3.661432 20.195901 3.752578 C 20.140563 3.843724 20.047247 3.988038 19.986483 4.077014 C 19.926804 4.16599 19.825892 4.305964 19.760788 4.392769 C 19.695684 4.47849 19.587177 4.615208 19.517733 4.698759 C 19.448288 4.782309 19.332186 4.913602 19.258401 4.993898 C 19.183531 5.074193 19.060918 5.201146 18.981708 5.278186 C 18.903583 5.356311 18.773375 5.477839 18.689825 5.551623 C 18.606274 5.625408 18.46847 5.74151 18.38058 5.81204 C 18.293774 5.882569 18.14946 5.993247 18.058314 6.059436 C 17.966083 6.12671 17.815259 6.229792 17.719773 6.292726 C 17.624286 6.35566 17.469122 6.454401 17.369295 6.512995 C 17.269469 6.571589 17.106708 6.662734 17.003627 6.716988 C 16.89946 6.772326 16.731274 6.856962 16.624938 6.906875 C 16.517516 6.956788 16.343905 7.034913 16.234313 7.080486 C 16.12472 7.126059 15.944599 7.195503 15.831752 7.236736 C 15.718905 7.277969 15.534443 7.339818 15.41834 7.37671 C 15.302238 7.412517 15.113436 7.467856 14.994078 7.499323 C 14.875806 7.53079 14.682663 7.577448 14.561135 7.60349 C 14.439608 7.630616 14.242125 7.668594 14.118427 7.690295 C 13.994729 7.711997 13.792906 7.741293 13.667038 7.757569 C 13.540085 7.773845 13.336092 7.795547 13.208054 7.805312 C 13.078931 7.816163 12.871682 7.829184 12.741474 7.834609 C 12.611266 7.840035 12.401847 7.84329 12.269469 7.84329 C 12.138175 7.84329 11.925502 7.837865 11.793123 7.832439 C 11.65966 7.825929 11.444816 7.811823 11.310267 7.800972 C 11.175719 7.789036 10.958705 7.765165 10.824156 7.747804 C 10.688523 7.730443 10.471509 7.698976 10.33479 7.675104 C 10.199156 7.652318 9.979972 7.61 9.843253 7.580703 C 9.706535 7.551406 9.487351 7.500408 9.350632 7.465686 C 9.212828 7.430964 8.993644 7.369115 8.85584 7.328967 C 8.719122 7.287734 8.498852 7.217205 8.362134 7.170547 C 8.225415 7.123889 8.006231 7.043594 7.869512 6.990425 C 7.733878 6.938342 7.514694 6.848281 7.379061 6.789687 C 7.243427 6.731094 7.026413 6.632352 6.891865 6.567248 C 6.757316 6.503229 6.541387 6.393637 6.406839 6.323108 C 6.273375 6.252578 6.058531 6.13322 5.926153 6.057266 C 5.793774 5.980226 5.582186 5.853273 5.451977 5.769722 C 5.320684 5.687257 5.111266 5.550538 4.982142 5.461562 C 4.853019 5.372587 4.646856 5.226102 4.518818 5.131701 C 4.391865 5.0373 4.190042 4.882135 4.065259 4.781224 C 3.939391 4.681398 3.740823 4.516467 3.61821 4.41013 C 3.494512 4.304878 3.300285 4.130182 3.180927 4.01842 C 3.060484 3.907743 2.870597 3.724366 2.75341 3.607179 C 2.636222 3.489991 2.450675 3.297934 2.336743 3.175321 C 2.222811 3.052708 2.042689 2.850885 1.932012 2.722847 C 1.821335 2.594809 1.646639 2.385391 1.539217 2.253012 C 1.431795 2.119549 1.262524 1.90145 1.159443 1.762561 C 1.056361 1.624757 0.894686 1.399062 0.794859 1.254748 C 0.695033 1.111519 0.538783 0.877144 0.443297 0.72849 C 0.347811 0.579835 0.199156 0.337865 0.10801 0.18487 C 0.0179497 0.031875 -0.124194 -0.217691 -0.211 -0.375026 C -0.29672 -0.533446 -0.432354 -0.790608 -0.513734 -0.953368 C -0.595115 -1.116128 -0.723153 -1.3798 -0.799108 -1.546901 C -0.876148 -1.714002 -0.99442 -1.984184 -1.066035 -2.155625 C -1.137649 -2.325981 -1.248326 -2.604844 -1.315601 -2.77954 C -1.38179 -2.954236 -1.483786 -3.238524 -1.54455 -3.416476 C -1.605314 -3.595512 -1.69863 -3.886311 -1.753969 -4.068602 C -1.809307 -4.251979 -1.892858 -4.547118 -1.942771 -4.73375 C -1.991599 -4.919297 -2.066469 -5.220946 -2.110957 -5.410833 C -2.154359 -5.599635 -2.219464 -5.90671 -2.256356 -6.098767 C -2.294333 -6.29191 -2.349672 -6.603325 -2.381139 -6.798637 C -2.412606 -6.99395 -2.458179 -7.30862 -2.483135 -7.507188 C -2.508092 -7.70467 -2.542814 -8.024766 -2.56126 -8.225503 C -2.580792 -8.426241 -2.605748 -8.750677 -2.617684 -8.953585 C -2.62962 -9.156493 -2.643726 -9.484184 -2.649151 -9.689262 C -2.654576 -9.89434 -2.657832 -10.224201 -2.656747 -10.430365 C -2.655661 -10.637613 -2.648066 -10.970729 -2.64047 -11.179063 C -2.63179 -11.387396 -2.613344 -11.722682 -2.598153 -11.932101 C -2.582962 -12.141519 -2.553665 -12.478976 -2.531964 -12.690564 C -2.509177 -12.901068 -2.46903 -13.240694 -2.439733 -13.452283 C -2.410436 -13.663872 -2.358352 -14.004583 -2.322545 -14.216172 C -2.285653 -14.428845 -2.222719 -14.769557 -2.179316 -14.982231 C -2.135913 -15.194905 -2.059958 -15.536701 -2.010045 -15.749375 C -1.959047 -15.963134 -1.872241 -16.303845 -1.814733 -16.516519 C -1.756139 -16.730278 -1.657398 -17.07099 -1.592293 -17.283663 C -1.527189 -17.496337 -1.417597 -17.835964 -1.344898 -18.047552 C -1.273283 -18.259141 -1.15067 -18.599852 -1.07146 -18.810356 C -0.99225 -19.021944 -0.857701 -19.359401 -0.770896 -19.568819 C -0.68409 -19.779323 -0.538691 -20.114609 -0.445375 -20.322943 C -0.350974 -20.531276 -0.193639 -20.864392 -0.0927274 -21.071641 C 0.00818403 -21.278889 0.17637 -21.60875 0.284877 -21.812743 C 0.393384 -22.017821 0.573505 -22.345512 0.689608 -22.54842 C 0.80571 -22.751328 0.996682 -23.074679 1.119295 -23.275417 C 1.241908 -23.476155 1.445901 -23.79625 1.576109 -23.993733 C 1.705233 -24.1923 1.920076 -24.50697 2.056795 -24.701198 C 2.193514 -24.89651 2.419208 -25.20684 2.563523 -25.398898 C 2.706752 -25.58987 2.943297 -25.895859 3.094122 -26.084661 C 3.244946 -26.273464 3.492342 -26.572943 3.649677 -26.75849 C 3.808097 -26.942951 4.066344 -27.23592 4.230189 -27.417127 C 4.394035 -27.598333 4.663132 -27.886962 4.834573 -28.063828 C 5.004929 -28.240694 5.284877 -28.520642 5.461743 -28.694253 C 5.638609 -28.86678 5.928323 -29.140217 6.1117 -29.308403 C 6.296161 -29.476589 6.594556 -29.742431 6.784443 -29.906276 C 6.97433 -30.069036 7.28249 -30.327283 7.478887 -30.484618 C 7.6742 -30.643038 7.994295 -30.893689 8.196118 -31.047769 C 8.397941 -31.200764 8.726717 -31.442734 8.933965 -31.590304 C 9.141214 -31.737873 9.47867 -31.970078 9.691344 -32.112222 C 9.904017 -32.254366 10.25124 -32.478976 10.469339 -32.614609 C 10.688523 -32.751328 11.04334 -32.965087 11.266865 -33.095295 C 11.490389 -33.225503 11.852802 -33.430582 12.081752 -33.55428 C 12.309616 -33.677977 12.68071 -33.87112 12.914 -33.989392 C 13.14729 -34.10658 13.527064 -34.289957 13.764694 -34.401719 C 14.00341 -34.512396 14.389694 -34.686007 14.63275 -34.790174 C 14.87472 -34.895425 15.267516 -35.056016 15.513826 -35.153672 C 15.761222 -35.251328 16.160528 -35.402153 16.412264 -35.493299 C 16.662915 -35.583359 17.068731 -35.722248 17.323722 -35.805799 C 17.578714 -35.889349 17.99104 -36.016302 18.249286 -36.092257 C 18.507533 -36.168212 18.9242 -36.283229 19.185701 -36.351589 C 19.447203 -36.419948 19.869295 -36.52303 20.135137 -36.583793 C 20.399894 -36.645642 20.827411 -36.736788 21.095424 -36.789957 C 21.363436 -36.843125 21.795293 -36.92125 22.065476 -36.965738 C 22.335658 -37.011311 22.770771 -37.0775 23.044208 -37.114392 C 23.316561 -37.151285 23.756014 -37.204453 24.030536 -37.232665 C 24.305059 -37.261962 24.747767 -37.302109 25.02446 -37.322726 C 25.301153 -37.344427 25.747116 -37.371554 26.024894 -37.38349 C 26.303757 -37.39651 26.750806 -37.409531 27.030753 -37.413872 C 27.309616 -37.418212 27.761005 -37.420382 28.040953 -37.417127 C 28.321986 -37.412786 28.77229 -37.398681 29.054408 -37.38566 C 29.335441 -37.373724 29.789 -37.347682 30.071118 -37.325981 C 30.353236 -37.305365 30.80571 -37.265217 31.088913 -37.23592 C 31.371031 -37.206623 31.823505 -37.15454 32.106708 -37.116563 C 32.388826 -37.078585 32.8413 -37.009141 33.123418 -36.963568 C 33.406622 -36.91691 33.859095 -36.836615 34.140128 -36.781276 C 34.422247 -36.727023 34.871465 -36.631536 35.151413 -36.567517 C 35.432446 -36.504583 35.881665 -36.394991 36.161613 -36.323377 C 36.441561 -36.251762 36.889694 -36.130234 37.168557 -36.049939 C 37.44742 -35.969644 37.892299 -35.83401 38.167906 -35.745035 C 38.444599 -35.656059 38.886222 -35.506319 39.160745 -35.408663 C 39.435267 -35.312092 39.87472 -35.149332 40.147073 -35.04408 C 40.419425 -34.937743 40.854538 -34.761962 41.123635 -34.64803 C 41.393818 -34.534097 41.825675 -34.343125 42.092602 -34.221597 C 42.360615 -34.098984 42.787047 -33.897161 43.050719 -33.766953 C 43.315476 -33.63566 43.736483 -33.420816 43.997984 -33.281927 C 44.258401 -33.144123 44.675068 -32.915174 44.932229 -32.768689 C 45.189391 -32.622205 45.598462 -32.380234 45.852368 -32.225069 C 46.106274 -32.07099 46.511005 -31.817083 46.760571 -31.655408 C 47.010137 -31.493733 47.405102 -31.227891 47.651413 -31.057535 C 47.896639 -30.888264 48.287264 -30.608316 48.528149 -30.43145 C 48.769035 -30.253498 49.150979 -29.963785 49.386439 -29.779323 C 49.621899 -29.593776 49.997333 -29.292127 50.228453 -29.100069 C 50.458488 -28.909097 50.825241 -28.595512 51.049851 -28.395859 C 51.275545 -28.196207 51.633618 -27.870686 51.853887 -27.664523 C 52.074156 -27.458359 52.422464 -27.121988 52.637307 -26.909314 C 52.851066 -26.696641 53.188523 -26.349418 53.396856 -26.130234 C 53.605189 -25.91105 53.936135 -25.554063 54.139043 -25.328368 C 54.340866 -25.102674 54.660962 -24.734835 54.856274 -24.50263 C 55.051587 -24.270425 55.360832 -23.894991 55.549634 -23.656276 C 55.738436 -23.418646 56.03683 -23.030191 56.219122 -22.78605 C 56.402498 -22.54191 56.691127 -22.146944 56.866908 -21.897378 C 57.042689 -21.648898 57.319382 -21.244167 57.487568 -20.99026 C 57.655753 -20.735269 57.92051 -20.321858 58.081101 -20.061441 C 58.242776 -19.802109 58.494512 -19.381102 58.647507 -19.11526 C 58.800502 -18.850503 59.040302 -18.421901 59.185701 -18.151719 C 59.332186 -17.881536 59.56222 -17.445339 59.701109 -17.170816 C 59.838913 -16.897378 60.053757 -16.45467 60.183965 -16.176892 C 60.314174 -15.89803 60.518167 -15.446641 60.64078 -15.164523 C 60.762307 -14.882405 60.950024 -14.426675 61.063957 -14.141302 C 61.177889 -13.854844 61.35584 -13.392604 61.462177 -13.103976 C 61.567429 -12.814262 61.730189 -12.347682 61.82676 -12.054714 C 61.924417 -11.76283 62.074156 -11.290825 62.163132 -10.994601 C 62.252108 -10.698377 62.387741 -10.222031 62.468036 -9.923637 C 62.548332 -9.625243 62.669859 -9.145642 62.741474 -8.843993 C 62.813089 -8.543429 62.92051 -8.059488 62.983444 -7.756753 C 63.045293 -7.454019 63.14078 -6.967908 63.193948 -6.663003 C 63.248201 -6.358099 63.325241 -5.867648 63.369729 -5.561658 C 63.415302 -5.255668 63.481491 -4.764132 63.517299 -4.457057 C 63.554191 -4.148898 63.605189 -3.655191 63.632316 -3.347031 C 63.659443 -3.037786 63.696335 -2.542995 63.713696 -2.23375 C 63.732142 -1.924505 63.753844 -1.428628 63.762524 -1.118299 C 63.771205 -0.809054 63.7788 -0.00284722 63.7788 -0.00284722 " transform="matrix(3.6,0,0,-3.6,76.7596,153.521)"/>
</g>
<path style="fill:none;stroke-width:0.79701;stroke-linecap:butt;stroke-linejoin:miter;stroke:rgb(100%,0%,0%);stroke-opacity:1;stroke-miterlimit:10;" d="M 57.52446 -20.937092 C 57.52446 -20.937092 57.963913 -20.253498 58.127759 -19.986571 C 58.292689 -19.719644 58.550936 -19.287786 58.707186 -19.015434 C 58.862351 -18.744167 59.105406 -18.304714 59.254061 -18.028021 C 59.40163 -17.752413 59.633835 -17.30428 59.773809 -17.023247 C 59.914868 -16.742214 60.132967 -16.287569 60.26426 -16.002196 C 60.396639 -15.716823 60.600632 -15.255668 60.72433 -14.965955 C 60.848028 -14.676241 61.037915 -14.209661 61.152932 -13.915608 C 61.26795 -13.622639 61.444816 -13.149549 61.551153 -12.85224 C 61.656405 -12.554931 61.819165 -12.07533 61.916821 -11.775851 C 62.014477 -11.475286 62.164217 -10.991345 62.253193 -10.688611 C 62.341083 -10.385877 62.474547 -9.89651 62.552672 -9.590521 C 62.631882 -9.285616 62.75124 -8.792995 62.821769 -8.484835 C 62.892299 -8.176675 62.99755 -7.679714 63.058314 -7.369384 C 63.120163 -7.059054 63.209139 -6.558837 63.260137 -6.246337 C 63.31222 -5.934922 63.388175 -5.43362 63.430493 -5.120035 C 63.472811 -4.80645 63.533575 -4.301892 63.566127 -3.986137 C 63.599764 -3.671467 63.644252 -3.165825 63.668123 -2.850069 C 63.691995 -2.534314 63.722377 -2.026502 63.736483 -1.710747 C 63.750589 -1.393906 63.76578 -0.886094 63.77012 -0.570339 C 63.775545 -0.253498 63.775545 0.253229 63.77012 0.570069 C 63.76578 0.88691 63.750589 1.394722 63.736483 1.711562 C 63.722377 2.027318 63.691995 2.534045 63.668123 2.8498 C 63.644252 3.165556 63.599764 3.671198 63.566127 3.986953 C 63.533575 4.301623 63.472811 4.807266 63.430493 5.120851 C 63.388175 5.434436 63.31222 5.934653 63.260137 6.247153 C 63.209139 6.558568 63.120163 7.058785 63.058314 7.369115 C 62.99755 7.679444 62.892299 8.175321 62.821769 8.483481 C 62.75124 8.791641 62.630797 9.285347 62.551587 9.591337 C 62.472377 9.897326 62.338913 10.384523 62.251023 10.687257 C 62.163132 10.991076 62.015563 11.475017 61.917906 11.775582 C 61.821335 12.076146 61.65749 12.555747 61.551153 12.85197 C 61.444816 13.14928 61.26578 13.62237 61.151847 13.915339 C 61.03683 14.208307 60.846943 14.675972 60.72433 14.965686 C 60.601717 15.255399 60.396639 15.716554 60.26426 16.001927 C 60.131882 16.2873 59.912698 16.741944 59.772724 17.022977 C 59.63275 17.30401 59.40163 17.751059 59.254061 18.027752 C 59.105406 18.304444 58.862351 18.743898 58.707186 19.01625 C 58.550936 19.287517 58.293774 19.719375 58.129929 19.986302 C 57.964998 20.252144 57.523375 20.936823 57.523375 20.936823 " transform="matrix(3.6,0,0,-3.6,76.7596,153.521)"/>
<g clip-path="url(#clip4)" clip-rule="nonzero">
<path style="fill:none;stroke-width:0.79701;stroke-linecap:butt;stroke-linejoin:miter;stroke:rgb(0%,0%,100%);stroke-opacity:1;stroke-miterlimit:10;" d="M -0.000496528 -21.260443 C -0.000496528 -21.260443 0.280536 -21.807318 0.393384 -22.016736 C 0.506231 -22.225069 0.693948 -22.559271 0.814391 -22.765434 C 0.934833 -22.972682 1.135571 -23.302543 1.263609 -23.506536 C 1.391648 -23.711615 1.603236 -24.037135 1.737785 -24.238958 C 1.873418 -24.439696 2.095858 -24.759792 2.239087 -24.958359 C 2.381231 -25.155842 2.616691 -25.472682 2.766431 -25.66691 C 2.917255 -25.862222 3.163566 -26.172552 3.319816 -26.363524 C 3.477151 -26.555582 3.735398 -26.859401 3.899243 -27.046033 C 4.064174 -27.23375 4.332186 -27.532144 4.503627 -27.715521 C 4.673983 -27.898898 4.953931 -28.188611 5.131882 -28.367648 C 5.309833 -28.546684 5.600632 -28.830972 5.786179 -29.004583 C 5.970641 -29.17928 6.271205 -29.454887 6.463262 -29.624158 C 6.654234 -29.793429 6.965649 -30.061441 7.163132 -30.225286 C 7.360615 -30.390217 7.68288 -30.649549 7.885788 -30.809054 C 8.089781 -30.967474 8.420727 -31.218125 8.631231 -31.37112 C 8.840649 -31.524115 9.182446 -31.766085 9.398375 -31.913655 C 9.614304 -32.062309 9.964781 -32.293429 10.186135 -32.435573 C 10.40749 -32.576632 10.767733 -32.799071 10.995597 -32.934705 C 11.222377 -33.070339 11.590215 -33.283012 11.82242 -33.41105 C 12.054625 -33.540174 12.432229 -33.741997 12.668774 -33.864609 C 12.906405 -33.987222 13.291604 -34.177109 13.53466 -34.293212 C 13.77663 -34.408229 14.169425 -34.587266 14.416821 -34.695773 C 14.663132 -34.80428 15.064608 -34.97355 15.316344 -35.074462 C 15.56808 -35.175373 15.974981 -35.332708 16.231057 -35.426024 C 16.487134 -35.520425 16.89946 -35.66474 17.159877 -35.75046 C 17.419208 -35.837266 17.840215 -35.970729 18.103887 -36.048854 C 18.367559 -36.128064 18.793991 -36.247422 19.060918 -36.317951 C 19.327845 -36.389566 19.759703 -36.496988 20.03097 -36.559922 C 20.301153 -36.622856 20.738436 -36.717257 21.011873 -36.772595 C 21.285311 -36.826849 21.726934 -36.908229 22.003627 -36.954887 C 22.279234 -37.001545 22.724113 -37.069905 23.002976 -37.107882 C 23.281839 -37.146944 23.732142 -37.201198 24.013175 -37.23158 C 24.294208 -37.260877 24.745597 -37.303194 25.0288 -37.323811 C 25.312003 -37.345512 25.767733 -37.372639 26.053106 -37.38566 C 26.337394 -37.398681 26.795293 -37.411701 27.080667 -37.416042 C 27.367125 -37.420382 27.82828 -37.420382 28.115823 -37.416042 C 28.402281 -37.411701 28.863436 -37.395425 29.152064 -37.382405 C 29.439608 -37.368299 29.902932 -37.340087 30.191561 -37.3173 C 30.480189 -37.295599 31.233227 -37.221814 31.233227 -37.221814 " transform="matrix(3.6,0,0,-3.6,76.7596,153.521)"/>
</g>
<path style="fill:none;stroke-width:0.3985;stroke-linecap:butt;stroke-linejoin:miter;stroke:rgb(100%,0%,0%);stroke-opacity:1;stroke-miterlimit:10;" d="M 63.779885 -10.172118 L 63.779885 10.171849 " transform="matrix(3.6,0,0,-3.6,76.7596,153.521)"/>
<path style="fill:none;stroke-width:0.31879;stroke-linecap:round;stroke-linejoin:round;stroke:rgb(100%,0%,0%);stroke-opacity:1;stroke-miterlimit:10;" d="M -1.195378 1.593547 C -1.095552 0.996759 0.000368056 0.0994063 0.298762 -0.000420139 C 0.000368056 -0.0991615 -1.095552 -0.996514 -1.195378 -1.594387 " transform="matrix(0,3.6,3.6,0,306.3687,190.1393)"/>
<path style="fill:none;stroke-width:0.31879;stroke-linecap:round;stroke-linejoin:round;stroke:rgb(100%,0%,0%);stroke-opacity:1;stroke-miterlimit:10;" d="M -1.195648 1.594387 C -1.095821 0.996514 0.0000989583 0.0991615 0.298493 0.000420139 C 0.0000989583 -0.0994063 -1.095821 -0.996759 -1.195648 -1.593547 " transform="matrix(0,-3.6,-3.6,0,306.3687,116.9027)"/>
<path style=" stroke:none;fill-rule:nonzero;fill:rgb(100%,0%,0%);fill-opacity:1;" d="M 311.441406 153.519531 C 311.441406 150.71875 309.171875 148.449219 306.367188 148.449219 C 303.566406 148.449219 301.296875 150.71875 301.296875 153.519531 C 301.296875 156.324219 303.566406 158.59375 306.367188 158.59375 C 309.171875 158.59375 311.441406 156.324219 311.441406 153.519531 Z M 311.441406 153.519531 "/>
<g clip-path="url(#clip5)" clip-rule="nonzero">
<path style="fill:none;stroke-width:0.3985;stroke-linecap:butt;stroke-linejoin:miter;stroke:rgb(0%,0%,100%);stroke-opacity:1;stroke-miterlimit:10;" d="M 3.274243 -28.852674 L 21.216951 -38.434922 " transform="matrix(3.6,0,0,-3.6,76.7596,153.521)"/>
</g>
<path style="fill:none;stroke-width:0.31879;stroke-linecap:round;stroke-linejoin:round;stroke:rgb(0%,0%,100%);stroke-opacity:1;stroke-miterlimit:10;" d="M -1.195437 1.593697 C -1.095438 0.996372 -0.00000431937 0.0990389 0.298764 0.000253493 C -0.0000329446 -0.0990222 -1.095399 -0.996366 -1.195886 -1.593727 " transform="matrix(-3.17556,-1.695672,-1.695672,3.17556,88.54683,257.39252)"/>
<path style="fill:none;stroke-width:0.31879;stroke-linecap:round;stroke-linejoin:round;stroke:rgb(0%,0%,100%);stroke-opacity:1;stroke-miterlimit:10;" d="M -1.195874 1.593966 C -1.095874 0.996642 -0.000441064 0.0993083 0.298839 -0.000434229 C 0.0000414203 -0.0997099 -1.095835 -0.996096 -1.195811 -1.594415 " transform="matrix(3.17556,1.695672,1.695672,-3.17556,153.1416,291.88642)"/>
<path style=" stroke:none;fill-rule:nonzero;fill:rgb(0%,0%,100%);fill-opacity:1;" d="M 125.917969 274.640625 C 125.917969 271.839844 123.644531 269.566406 120.84375 269.566406 C 118.042969 269.566406 115.773438 271.839844 115.773438 274.640625 C 115.773438 277.441406 118.042969 279.710938 120.84375 279.710938 C 123.644531 279.710938 125.917969 277.441406 125.917969 274.640625 Z M 125.917969 274.640625 "/>
</g>
</svg>
